M48
; DRILL file {KiCad 7.0.6} date Mon Jul 24 21:53:20 2023
; FORMAT={-:-/ absolute / inch / decimal}
; #@! TF.CreationDate,2023-07-24T21:53:20+02:00
; #@! TF.GenerationSoftware,Kicad,Pcbnew,7.0.6
; #@! TF.FileFunction,Plated,1,2,PTH
FMAT,2
INCH
; #@! TA.AperFunction,Plated,PTH,ViaDrill
T1C0.0118
; #@! TA.AperFunction,Plated,PTH,ComponentDrill
T2C0.0394
%
G90
G05
T1
X0.0748Y0.2244
X0.0906Y0.7323
X0.0906Y0.5433
X0.0906Y0.4449
X0.0984Y0.8346
X0.1024Y0.9094
X0.126Y0.7677
X0.1378Y0.6535
X0.1417Y0.1929
X0.1614Y0.4906
X0.1654Y0.6811
X0.1811Y0.7835
X0.189Y0.9252
X0.189Y0.8701
X0.2126Y0.2677
X0.2323Y0.1614
X0.252Y0.3031
X0.2638Y0.5984
X0.2638Y0.5197
X0.2638Y0.4528
X0.2874Y0.2953
X0.3071Y0.8386
X0.3091Y0.3602
X0.3386Y0.5984
X0.3386Y0.5236
X0.3386Y0.4528
X0.3681Y0.3602
X0.3701Y0.937
X0.3701Y0.8976
X0.3898Y0.2126
X0.3937Y0.3583
X0.3937Y0.2953
X0.4134Y0.937
X0.4134Y0.8976
X0.4213Y0.5984
X0.4213Y0.5197
X0.4213Y0.4528
X0.4252Y0.7047
X0.4449Y0.3071
X0.4484Y0.1658
X0.4488Y0.3543
X0.4646Y1.0
X0.5157Y0.5984
T2
X0.0921Y0.0344
X0.1921Y0.0344
X0.2921Y0.0344
X0.3921Y0.0344
X0.4921Y0.0344
T0
M30
