%TF.GenerationSoftware,KiCad,Pcbnew,8.0.7*%
%TF.CreationDate,2025-01-18T23:57:26+01:00*%
%TF.ProjectId,beacon,62656163-6f6e-42e6-9b69-6361645f7063,rev?*%
%TF.SameCoordinates,Original*%
%TF.FileFunction,Soldermask,Top*%
%TF.FilePolarity,Negative*%
%FSLAX46Y46*%
G04 Gerber Fmt 4.6, Leading zero omitted, Abs format (unit mm)*
G04 Created by KiCad (PCBNEW 8.0.7) date 2025-01-18 23:57:26*
%MOMM*%
%LPD*%
G01*
G04 APERTURE LIST*
G04 Aperture macros list*
%AMRoundRect*
0 Rectangle with rounded corners*
0 $1 Rounding radius*
0 $2 $3 $4 $5 $6 $7 $8 $9 X,Y pos of 4 corners*
0 Add a 4 corners polygon primitive as box body*
4,1,4,$2,$3,$4,$5,$6,$7,$8,$9,$2,$3,0*
0 Add four circle primitives for the rounded corners*
1,1,$1+$1,$2,$3*
1,1,$1+$1,$4,$5*
1,1,$1+$1,$6,$7*
1,1,$1+$1,$8,$9*
0 Add four rect primitives between the rounded corners*
20,1,$1+$1,$2,$3,$4,$5,0*
20,1,$1+$1,$4,$5,$6,$7,0*
20,1,$1+$1,$6,$7,$8,$9,0*
20,1,$1+$1,$8,$9,$2,$3,0*%
G04 Aperture macros list end*
%ADD10C,1.500000*%
%ADD11RoundRect,0.147500X0.172500X-0.147500X0.172500X0.147500X-0.172500X0.147500X-0.172500X-0.147500X0*%
%ADD12RoundRect,0.140000X0.140000X0.170000X-0.140000X0.170000X-0.140000X-0.170000X0.140000X-0.170000X0*%
%ADD13RoundRect,0.500000X-0.500000X-1.250000X0.500000X-1.250000X0.500000X1.250000X-0.500000X1.250000X0*%
%ADD14RoundRect,0.140000X-0.170000X0.140000X-0.170000X-0.140000X0.170000X-0.140000X0.170000X0.140000X0*%
%ADD15RoundRect,0.062500X0.375000X0.062500X-0.375000X0.062500X-0.375000X-0.062500X0.375000X-0.062500X0*%
%ADD16RoundRect,0.062500X0.062500X0.375000X-0.062500X0.375000X-0.062500X-0.375000X0.062500X-0.375000X0*%
%ADD17R,5.600000X5.600000*%
%ADD18RoundRect,0.135000X0.185000X-0.135000X0.185000X0.135000X-0.185000X0.135000X-0.185000X-0.135000X0*%
%ADD19C,1.300000*%
%ADD20RoundRect,0.140000X0.170000X-0.140000X0.170000X0.140000X-0.170000X0.140000X-0.170000X-0.140000X0*%
%ADD21RoundRect,0.150000X-0.150000X0.587500X-0.150000X-0.587500X0.150000X-0.587500X0.150000X0.587500X0*%
%ADD22C,1.000000*%
%ADD23RoundRect,0.140000X-0.140000X-0.170000X0.140000X-0.170000X0.140000X0.170000X-0.140000X0.170000X0*%
%ADD24RoundRect,0.135000X-0.185000X0.135000X-0.185000X-0.135000X0.185000X-0.135000X0.185000X0.135000X0*%
%ADD25R,0.800000X0.900000*%
%ADD26RoundRect,0.125000X-0.125000X0.150000X-0.125000X-0.150000X0.125000X-0.150000X0.125000X0.150000X0*%
%ADD27RoundRect,0.147500X-0.147500X-0.172500X0.147500X-0.172500X0.147500X0.172500X-0.147500X0.172500X0*%
%ADD28RoundRect,0.218750X-0.218750X-0.256250X0.218750X-0.256250X0.218750X0.256250X-0.218750X0.256250X0*%
G04 APERTURE END LIST*
D10*
%TO.C,J1*%
X12500000Y800000D03*
X9960000Y800000D03*
X7420000Y800000D03*
X4880000Y800000D03*
X2340000Y800000D03*
%TD*%
D11*
%TO.C,L3*%
X6100000Y20815000D03*
X6100000Y21785000D03*
%TD*%
D12*
%TO.C,C5*%
X5380000Y17900000D03*
X4420000Y17900000D03*
%TD*%
D13*
%TO.C,J2*%
X10000000Y24100000D03*
%TD*%
D12*
%TO.C,C7*%
X6080000Y19900000D03*
X5120000Y19900000D03*
%TD*%
D14*
%TO.C,C11*%
X10700000Y8480000D03*
X10700000Y7520000D03*
%TD*%
%TO.C,C13*%
X2900000Y6780000D03*
X2900000Y5820000D03*
%TD*%
%TO.C,C3*%
X9300000Y8480000D03*
X9300000Y7520000D03*
%TD*%
D12*
%TO.C,C12*%
X3480000Y17900000D03*
X2520000Y17900000D03*
%TD*%
D15*
%TO.C,U1*%
X12037500Y10550000D03*
X12037500Y11050000D03*
X12037500Y11550000D03*
X12037500Y12050000D03*
X12037500Y12550000D03*
X12037500Y13050000D03*
X12037500Y13550000D03*
X12037500Y14050000D03*
X12037500Y14550000D03*
X12037500Y15050000D03*
X12037500Y15550000D03*
X12037500Y16050000D03*
D16*
X11350000Y16737500D03*
X10850000Y16737500D03*
X10350000Y16737500D03*
X9850000Y16737500D03*
X9350000Y16737500D03*
X8850000Y16737500D03*
X8350000Y16737500D03*
X7850000Y16737500D03*
X7350000Y16737500D03*
X6850000Y16737500D03*
X6350000Y16737500D03*
X5850000Y16737500D03*
D15*
X5162500Y16050000D03*
X5162500Y15550000D03*
X5162500Y15050000D03*
X5162500Y14550000D03*
X5162500Y14050000D03*
X5162500Y13550000D03*
X5162500Y13050000D03*
X5162500Y12550000D03*
X5162500Y12050000D03*
X5162500Y11550000D03*
X5162500Y11050000D03*
X5162500Y10550000D03*
D16*
X5850000Y9862500D03*
X6350000Y9862500D03*
X6850000Y9862500D03*
X7350000Y9862500D03*
X7850000Y9862500D03*
X8350000Y9862500D03*
X8850000Y9862500D03*
X9350000Y9862500D03*
X9850000Y9862500D03*
X10350000Y9862500D03*
X10850000Y9862500D03*
X11350000Y9862500D03*
D17*
X8600000Y13300000D03*
%TD*%
D18*
%TO.C,R3*%
X10400000Y18900000D03*
X10400000Y19920000D03*
%TD*%
D19*
%TO.C,H2*%
X13000000Y3800000D03*
%TD*%
D20*
%TO.C,C14*%
X2900000Y3920000D03*
X2900000Y4880000D03*
%TD*%
D21*
%TO.C,U2*%
X6050000Y6500000D03*
X4150000Y6500000D03*
X5100000Y4625000D03*
%TD*%
D22*
%TO.C,TP2*%
X8600000Y6000000D03*
%TD*%
D20*
%TO.C,C6*%
X8000000Y18920000D03*
X8000000Y19880000D03*
%TD*%
D23*
%TO.C,C15*%
X5920000Y8400000D03*
X6880000Y8400000D03*
%TD*%
D24*
%TO.C,R4*%
X9300000Y19910000D03*
X9300000Y18890000D03*
%TD*%
D12*
%TO.C,C1*%
X12380000Y17900000D03*
X11420000Y17900000D03*
%TD*%
%TO.C,C10*%
X3280000Y13200000D03*
X2320000Y13200000D03*
%TD*%
%TO.C,C4*%
X4180000Y18900000D03*
X3220000Y18900000D03*
%TD*%
D14*
%TO.C,C2*%
X7850000Y8480000D03*
X7850000Y7520000D03*
%TD*%
D24*
%TO.C,R1*%
X10700000Y6410000D03*
X10700000Y5390000D03*
%TD*%
D25*
%TO.C,Y1*%
X3600000Y14600000D03*
X3600000Y16000000D03*
X2500000Y16000000D03*
X2500000Y14600000D03*
%TD*%
D12*
%TO.C,C9*%
X3280000Y11900000D03*
X2320000Y11900000D03*
%TD*%
D22*
%TO.C,TP1*%
X3300000Y9800000D03*
%TD*%
D24*
%TO.C,R2*%
X11700000Y6410000D03*
X11700000Y5390000D03*
%TD*%
D19*
%TO.C,H1*%
X2500000Y24600000D03*
%TD*%
D26*
%TO.C,SW1*%
X12600000Y21525000D03*
X11800000Y21525000D03*
X12600000Y18875000D03*
X11800000Y18875000D03*
%TD*%
D27*
%TO.C,L1*%
X5115000Y18900000D03*
X6085000Y18900000D03*
%TD*%
D12*
%TO.C,C8*%
X5780000Y22700000D03*
X4820000Y22700000D03*
%TD*%
D11*
%TO.C,L2*%
X7000000Y18915000D03*
X7000000Y19885000D03*
%TD*%
D28*
%TO.C,D1*%
X8812500Y21300000D03*
X10387500Y21300000D03*
%TD*%
D13*
%TO.C,AE1*%
X7400000Y24100000D03*
%TD*%
M02*
