%TF.GenerationSoftware,KiCad,Pcbnew,8.0.7*%
%TF.CreationDate,2025-01-18T23:57:26+01:00*%
%TF.ProjectId,beacon,62656163-6f6e-42e6-9b69-6361645f7063,rev?*%
%TF.SameCoordinates,Original*%
%TF.FileFunction,Legend,Bot*%
%TF.FilePolarity,Positive*%
%FSLAX46Y46*%
G04 Gerber Fmt 4.6, Leading zero omitted, Abs format (unit mm)*
G04 Created by KiCad (PCBNEW 8.0.7) date 2025-01-18 23:57:26*
%MOMM*%
%LPD*%
G01*
G04 APERTURE LIST*
G04 Aperture macros list*
%AMRoundRect*
0 Rectangle with rounded corners*
0 $1 Rounding radius*
0 $2 $3 $4 $5 $6 $7 $8 $9 X,Y pos of 4 corners*
0 Add a 4 corners polygon primitive as box body*
4,1,4,$2,$3,$4,$5,$6,$7,$8,$9,$2,$3,0*
0 Add four circle primitives for the rounded corners*
1,1,$1+$1,$2,$3*
1,1,$1+$1,$4,$5*
1,1,$1+$1,$6,$7*
1,1,$1+$1,$8,$9*
0 Add four rect primitives between the rounded corners*
20,1,$1+$1,$2,$3,$4,$5,0*
20,1,$1+$1,$4,$5,$6,$7,0*
20,1,$1+$1,$6,$7,$8,$9,0*
20,1,$1+$1,$8,$9,$2,$3,0*%
G04 Aperture macros list end*
%ADD10C,0.150000*%
%ADD11C,0.300000*%
%ADD12C,1.500000*%
%ADD13C,1.300000*%
%ADD14RoundRect,0.600000X-2.900000X0.600000X-2.900000X-0.600000X2.900000X-0.600000X2.900000X0.600000X0*%
%ADD15RoundRect,1.500000X-1.500000X1.500000X-1.500000X-1.500000X1.500000X-1.500000X1.500000X1.500000X0*%
G04 APERTURE END LIST*
D10*
X12756200Y16929888D02*
X12794295Y16987031D01*
X12794295Y16987031D02*
X12794295Y17101316D01*
X12794295Y17101316D02*
X12756200Y17158459D01*
X12756200Y17158459D02*
X12680009Y17187031D01*
X12680009Y17187031D02*
X12375247Y17187031D01*
X12375247Y17187031D02*
X12299057Y17158459D01*
X12299057Y17158459D02*
X12260961Y17101316D01*
X12260961Y17101316D02*
X12260961Y16987031D01*
X12260961Y16987031D02*
X12299057Y16929888D01*
X12299057Y16929888D02*
X12375247Y16901316D01*
X12375247Y16901316D02*
X12451438Y16901316D01*
X12451438Y16901316D02*
X12527628Y17187031D01*
X12794295Y16558459D02*
X12756200Y16615602D01*
X12756200Y16615602D02*
X12680009Y16644173D01*
X12680009Y16644173D02*
X11994295Y16644173D01*
X12260961Y16387030D02*
X12794295Y16244173D01*
X12794295Y16244173D02*
X12260961Y16101316D01*
X12794295Y15872744D02*
X12260961Y15872744D01*
X11994295Y15872744D02*
X12032390Y15901316D01*
X12032390Y15901316D02*
X12070485Y15872744D01*
X12070485Y15872744D02*
X12032390Y15844173D01*
X12032390Y15844173D02*
X11994295Y15872744D01*
X11994295Y15872744D02*
X12070485Y15872744D01*
X12260961Y15587030D02*
X12794295Y15587030D01*
X12337152Y15587030D02*
X12299057Y15558459D01*
X12299057Y15558459D02*
X12260961Y15501316D01*
X12260961Y15501316D02*
X12260961Y15415602D01*
X12260961Y15415602D02*
X12299057Y15358459D01*
X12299057Y15358459D02*
X12375247Y15329887D01*
X12375247Y15329887D02*
X12794295Y15329887D01*
X12756200Y14787030D02*
X12794295Y14844173D01*
X12794295Y14844173D02*
X12794295Y14958459D01*
X12794295Y14958459D02*
X12756200Y15015602D01*
X12756200Y15015602D02*
X12718104Y15044173D01*
X12718104Y15044173D02*
X12641914Y15072745D01*
X12641914Y15072745D02*
X12413342Y15072745D01*
X12413342Y15072745D02*
X12337152Y15044173D01*
X12337152Y15044173D02*
X12299057Y15015602D01*
X12299057Y15015602D02*
X12260961Y14958459D01*
X12260961Y14958459D02*
X12260961Y14844173D01*
X12260961Y14844173D02*
X12299057Y14787030D01*
X11956200Y14101316D02*
X12984771Y14615602D01*
X12794295Y13901316D02*
X12260961Y13901316D01*
X12413342Y13901316D02*
X12337152Y13872745D01*
X12337152Y13872745D02*
X12299057Y13844173D01*
X12299057Y13844173D02*
X12260961Y13787031D01*
X12260961Y13787031D02*
X12260961Y13729888D01*
X12794295Y13444173D02*
X12756200Y13501316D01*
X12756200Y13501316D02*
X12718104Y13529887D01*
X12718104Y13529887D02*
X12641914Y13558459D01*
X12641914Y13558459D02*
X12413342Y13558459D01*
X12413342Y13558459D02*
X12337152Y13529887D01*
X12337152Y13529887D02*
X12299057Y13501316D01*
X12299057Y13501316D02*
X12260961Y13444173D01*
X12260961Y13444173D02*
X12260961Y13358459D01*
X12260961Y13358459D02*
X12299057Y13301316D01*
X12299057Y13301316D02*
X12337152Y13272744D01*
X12337152Y13272744D02*
X12413342Y13244173D01*
X12413342Y13244173D02*
X12641914Y13244173D01*
X12641914Y13244173D02*
X12718104Y13272744D01*
X12718104Y13272744D02*
X12756200Y13301316D01*
X12756200Y13301316D02*
X12794295Y13358459D01*
X12794295Y13358459D02*
X12794295Y13444173D01*
X12756200Y12729887D02*
X12794295Y12787030D01*
X12794295Y12787030D02*
X12794295Y12901316D01*
X12794295Y12901316D02*
X12756200Y12958459D01*
X12756200Y12958459D02*
X12718104Y12987030D01*
X12718104Y12987030D02*
X12641914Y13015602D01*
X12641914Y13015602D02*
X12413342Y13015602D01*
X12413342Y13015602D02*
X12337152Y12987030D01*
X12337152Y12987030D02*
X12299057Y12958459D01*
X12299057Y12958459D02*
X12260961Y12901316D01*
X12260961Y12901316D02*
X12260961Y12787030D01*
X12260961Y12787030D02*
X12299057Y12729887D01*
X12794295Y12472744D02*
X11994295Y12472744D01*
X12489533Y12415601D02*
X12794295Y12244173D01*
X12260961Y12244173D02*
X12565723Y12472744D01*
X12756200Y11758459D02*
X12794295Y11815602D01*
X12794295Y11815602D02*
X12794295Y11929887D01*
X12794295Y11929887D02*
X12756200Y11987030D01*
X12756200Y11987030D02*
X12680009Y12015602D01*
X12680009Y12015602D02*
X12375247Y12015602D01*
X12375247Y12015602D02*
X12299057Y11987030D01*
X12299057Y11987030D02*
X12260961Y11929887D01*
X12260961Y11929887D02*
X12260961Y11815602D01*
X12260961Y11815602D02*
X12299057Y11758459D01*
X12299057Y11758459D02*
X12375247Y11729887D01*
X12375247Y11729887D02*
X12451438Y11729887D01*
X12451438Y11729887D02*
X12527628Y12015602D01*
X12260961Y11558459D02*
X12260961Y11329887D01*
X11994295Y11472744D02*
X12680009Y11472744D01*
X12680009Y11472744D02*
X12756200Y11444173D01*
X12756200Y11444173D02*
X12794295Y11387030D01*
X12794295Y11387030D02*
X12794295Y11329887D01*
X12794295Y11129887D02*
X11994295Y11129887D01*
X12299057Y11129887D02*
X12260961Y11072744D01*
X12260961Y11072744D02*
X12260961Y10958459D01*
X12260961Y10958459D02*
X12299057Y10901316D01*
X12299057Y10901316D02*
X12337152Y10872744D01*
X12337152Y10872744D02*
X12413342Y10844173D01*
X12413342Y10844173D02*
X12641914Y10844173D01*
X12641914Y10844173D02*
X12718104Y10872744D01*
X12718104Y10872744D02*
X12756200Y10901316D01*
X12756200Y10901316D02*
X12794295Y10958459D01*
X12794295Y10958459D02*
X12794295Y11072744D01*
X12794295Y11072744D02*
X12756200Y11129887D01*
X12756200Y10358459D02*
X12794295Y10415602D01*
X12794295Y10415602D02*
X12794295Y10529887D01*
X12794295Y10529887D02*
X12756200Y10587030D01*
X12756200Y10587030D02*
X12680009Y10615602D01*
X12680009Y10615602D02*
X12375247Y10615602D01*
X12375247Y10615602D02*
X12299057Y10587030D01*
X12299057Y10587030D02*
X12260961Y10529887D01*
X12260961Y10529887D02*
X12260961Y10415602D01*
X12260961Y10415602D02*
X12299057Y10358459D01*
X12299057Y10358459D02*
X12375247Y10329887D01*
X12375247Y10329887D02*
X12451438Y10329887D01*
X12451438Y10329887D02*
X12527628Y10615602D01*
X12794295Y9815601D02*
X12375247Y9815601D01*
X12375247Y9815601D02*
X12299057Y9844173D01*
X12299057Y9844173D02*
X12260961Y9901316D01*
X12260961Y9901316D02*
X12260961Y10015601D01*
X12260961Y10015601D02*
X12299057Y10072744D01*
X12756200Y9815601D02*
X12794295Y9872744D01*
X12794295Y9872744D02*
X12794295Y10015601D01*
X12794295Y10015601D02*
X12756200Y10072744D01*
X12756200Y10072744D02*
X12680009Y10101316D01*
X12680009Y10101316D02*
X12603819Y10101316D01*
X12603819Y10101316D02*
X12527628Y10072744D01*
X12527628Y10072744D02*
X12489533Y10015601D01*
X12489533Y10015601D02*
X12489533Y9872744D01*
X12489533Y9872744D02*
X12451438Y9815601D01*
X12756200Y9272744D02*
X12794295Y9329887D01*
X12794295Y9329887D02*
X12794295Y9444173D01*
X12794295Y9444173D02*
X12756200Y9501316D01*
X12756200Y9501316D02*
X12718104Y9529887D01*
X12718104Y9529887D02*
X12641914Y9558459D01*
X12641914Y9558459D02*
X12413342Y9558459D01*
X12413342Y9558459D02*
X12337152Y9529887D01*
X12337152Y9529887D02*
X12299057Y9501316D01*
X12299057Y9501316D02*
X12260961Y9444173D01*
X12260961Y9444173D02*
X12260961Y9329887D01*
X12260961Y9329887D02*
X12299057Y9272744D01*
X12794295Y8929887D02*
X12756200Y8987030D01*
X12756200Y8987030D02*
X12718104Y9015601D01*
X12718104Y9015601D02*
X12641914Y9044173D01*
X12641914Y9044173D02*
X12413342Y9044173D01*
X12413342Y9044173D02*
X12337152Y9015601D01*
X12337152Y9015601D02*
X12299057Y8987030D01*
X12299057Y8987030D02*
X12260961Y8929887D01*
X12260961Y8929887D02*
X12260961Y8844173D01*
X12260961Y8844173D02*
X12299057Y8787030D01*
X12299057Y8787030D02*
X12337152Y8758458D01*
X12337152Y8758458D02*
X12413342Y8729887D01*
X12413342Y8729887D02*
X12641914Y8729887D01*
X12641914Y8729887D02*
X12718104Y8758458D01*
X12718104Y8758458D02*
X12756200Y8787030D01*
X12756200Y8787030D02*
X12794295Y8844173D01*
X12794295Y8844173D02*
X12794295Y8929887D01*
X12260961Y8472744D02*
X12794295Y8472744D01*
X12337152Y8472744D02*
X12299057Y8444173D01*
X12299057Y8444173D02*
X12260961Y8387030D01*
X12260961Y8387030D02*
X12260961Y8301316D01*
X12260961Y8301316D02*
X12299057Y8244173D01*
X12299057Y8244173D02*
X12375247Y8215601D01*
X12375247Y8215601D02*
X12794295Y8215601D01*
X3600000Y23600000D02*
X12000000Y23600000D01*
X12000000Y17800000D01*
X3600000Y17800000D01*
X3600000Y23600000D01*
G36*
X3600000Y23600000D02*
G01*
X12000000Y23600000D01*
X12000000Y17800000D01*
X3600000Y17800000D01*
X3600000Y23600000D01*
G37*
X10187030Y6505705D02*
X10187030Y5934277D01*
X10187030Y5934277D02*
X10215601Y5819991D01*
X10215601Y5819991D02*
X10272744Y5743800D01*
X10272744Y5743800D02*
X10358458Y5705705D01*
X10358458Y5705705D02*
X10415601Y5705705D01*
X9615601Y5705705D02*
X9901315Y5705705D01*
X9901315Y5705705D02*
X9901315Y6505705D01*
X9072744Y5781896D02*
X9101316Y5743800D01*
X9101316Y5743800D02*
X9187030Y5705705D01*
X9187030Y5705705D02*
X9244173Y5705705D01*
X9244173Y5705705D02*
X9329887Y5743800D01*
X9329887Y5743800D02*
X9387030Y5819991D01*
X9387030Y5819991D02*
X9415601Y5896181D01*
X9415601Y5896181D02*
X9444173Y6048562D01*
X9444173Y6048562D02*
X9444173Y6162848D01*
X9444173Y6162848D02*
X9415601Y6315229D01*
X9415601Y6315229D02*
X9387030Y6391420D01*
X9387030Y6391420D02*
X9329887Y6467610D01*
X9329887Y6467610D02*
X9244173Y6505705D01*
X9244173Y6505705D02*
X9187030Y6505705D01*
X9187030Y6505705D02*
X9101316Y6467610D01*
X9101316Y6467610D02*
X9072744Y6429515D01*
X8644173Y6505705D02*
X8644173Y5934277D01*
X8644173Y5934277D02*
X8672744Y5819991D01*
X8672744Y5819991D02*
X8729887Y5743800D01*
X8729887Y5743800D02*
X8815601Y5705705D01*
X8815601Y5705705D02*
X8872744Y5705705D01*
X8072744Y5705705D02*
X8358458Y5705705D01*
X8358458Y5705705D02*
X8358458Y6505705D01*
X7529887Y5781896D02*
X7558459Y5743800D01*
X7558459Y5743800D02*
X7644173Y5705705D01*
X7644173Y5705705D02*
X7701316Y5705705D01*
X7701316Y5705705D02*
X7787030Y5743800D01*
X7787030Y5743800D02*
X7844173Y5819991D01*
X7844173Y5819991D02*
X7872744Y5896181D01*
X7872744Y5896181D02*
X7901316Y6048562D01*
X7901316Y6048562D02*
X7901316Y6162848D01*
X7901316Y6162848D02*
X7872744Y6315229D01*
X7872744Y6315229D02*
X7844173Y6391420D01*
X7844173Y6391420D02*
X7787030Y6467610D01*
X7787030Y6467610D02*
X7701316Y6505705D01*
X7701316Y6505705D02*
X7644173Y6505705D01*
X7644173Y6505705D02*
X7558459Y6467610D01*
X7558459Y6467610D02*
X7529887Y6429515D01*
X7101316Y6505705D02*
X7101316Y5934277D01*
X7101316Y5934277D02*
X7129887Y5819991D01*
X7129887Y5819991D02*
X7187030Y5743800D01*
X7187030Y5743800D02*
X7272744Y5705705D01*
X7272744Y5705705D02*
X7329887Y5705705D01*
X6529887Y5705705D02*
X6815601Y5705705D01*
X6815601Y5705705D02*
X6815601Y6505705D01*
X5987030Y5781896D02*
X6015602Y5743800D01*
X6015602Y5743800D02*
X6101316Y5705705D01*
X6101316Y5705705D02*
X6158459Y5705705D01*
X6158459Y5705705D02*
X6244173Y5743800D01*
X6244173Y5743800D02*
X6301316Y5819991D01*
X6301316Y5819991D02*
X6329887Y5896181D01*
X6329887Y5896181D02*
X6358459Y6048562D01*
X6358459Y6048562D02*
X6358459Y6162848D01*
X6358459Y6162848D02*
X6329887Y6315229D01*
X6329887Y6315229D02*
X6301316Y6391420D01*
X6301316Y6391420D02*
X6244173Y6467610D01*
X6244173Y6467610D02*
X6158459Y6505705D01*
X6158459Y6505705D02*
X6101316Y6505705D01*
X6101316Y6505705D02*
X6015602Y6467610D01*
X6015602Y6467610D02*
X5987030Y6429515D01*
X5558459Y6505705D02*
X5558459Y5934277D01*
X5558459Y5934277D02*
X5587030Y5819991D01*
X5587030Y5819991D02*
X5644173Y5743800D01*
X5644173Y5743800D02*
X5729887Y5705705D01*
X5729887Y5705705D02*
X5787030Y5705705D01*
X4987030Y5705705D02*
X5272744Y5705705D01*
X5272744Y5705705D02*
X5272744Y6505705D01*
X4444173Y5781896D02*
X4472745Y5743800D01*
X4472745Y5743800D02*
X4558459Y5705705D01*
X4558459Y5705705D02*
X4615602Y5705705D01*
X4615602Y5705705D02*
X4701316Y5743800D01*
X4701316Y5743800D02*
X4758459Y5819991D01*
X4758459Y5819991D02*
X4787030Y5896181D01*
X4787030Y5896181D02*
X4815602Y6048562D01*
X4815602Y6048562D02*
X4815602Y6162848D01*
X4815602Y6162848D02*
X4787030Y6315229D01*
X4787030Y6315229D02*
X4758459Y6391420D01*
X4758459Y6391420D02*
X4701316Y6467610D01*
X4701316Y6467610D02*
X4615602Y6505705D01*
X4615602Y6505705D02*
X4558459Y6505705D01*
X4558459Y6505705D02*
X4472745Y6467610D01*
X4472745Y6467610D02*
X4444173Y6429515D01*
D11*
%TO.C,BT1*%
X12100000Y26300000D02*
X12100000Y24300000D01*
X11100000Y25300000D02*
X13100000Y25300000D01*
X11500000Y15500000D02*
X11500000Y13500000D01*
X2500000Y4500000D02*
X2500000Y2500000D01*
X3500000Y3500000D02*
X1500000Y3500000D01*
%TD*%
%LPC*%
D12*
%TO.C,J1*%
X12500000Y800000D03*
X9960000Y800000D03*
X7420000Y800000D03*
X4880000Y800000D03*
X2340000Y800000D03*
%TD*%
D13*
%TO.C,H2*%
X13000000Y3800000D03*
%TD*%
%TO.C,H1*%
X2500000Y24600000D03*
%TD*%
D14*
%TO.C,BT1*%
X7500000Y25850000D03*
X7500000Y3150000D03*
D15*
X7500000Y14500000D03*
%TD*%
%LPD*%
M02*
