%TF.GenerationSoftware,KiCad,Pcbnew,7.0.6*%
%TF.CreationDate,2023-07-24T21:53:20+02:00*%
%TF.ProjectId,beacon,62656163-6f6e-42e6-9b69-6361645f7063,rev?*%
%TF.SameCoordinates,Original*%
%TF.FileFunction,Copper,L2,Bot*%
%TF.FilePolarity,Positive*%
%FSLAX46Y46*%
G04 Gerber Fmt 4.6, Leading zero omitted, Abs format (unit mm)*
G04 Created by KiCad (PCBNEW 7.0.6) date 2023-07-24 21:53:20*
%MOMM*%
%LPD*%
G01*
G04 APERTURE LIST*
G04 Aperture macros list*
%AMRoundRect*
0 Rectangle with rounded corners*
0 $1 Rounding radius*
0 $2 $3 $4 $5 $6 $7 $8 $9 X,Y pos of 4 corners*
0 Add a 4 corners polygon primitive as box body*
4,1,4,$2,$3,$4,$5,$6,$7,$8,$9,$2,$3,0*
0 Add four circle primitives for the rounded corners*
1,1,$1+$1,$2,$3*
1,1,$1+$1,$4,$5*
1,1,$1+$1,$6,$7*
1,1,$1+$1,$8,$9*
0 Add four rect primitives between the rounded corners*
20,1,$1+$1,$2,$3,$4,$5,0*
20,1,$1+$1,$4,$5,$6,$7,0*
20,1,$1+$1,$6,$7,$8,$9,0*
20,1,$1+$1,$8,$9,$2,$3,0*%
G04 Aperture macros list end*
%TA.AperFunction,ComponentPad*%
%ADD10C,1.700000*%
%TD*%
%TA.AperFunction,ComponentPad*%
%ADD11O,1.700000X1.700000*%
%TD*%
%TA.AperFunction,ConnectorPad*%
%ADD12RoundRect,0.600000X-2.450000X0.600000X-2.450000X-0.600000X2.450000X-0.600000X2.450000X0.600000X0*%
%TD*%
%TA.AperFunction,ConnectorPad*%
%ADD13RoundRect,1.500000X-1.500000X1.500000X-1.500000X-1.500000X1.500000X-1.500000X1.500000X1.500000X0*%
%TD*%
%TA.AperFunction,ViaPad*%
%ADD14C,0.500000*%
%TD*%
%TA.AperFunction,Conductor*%
%ADD15C,0.150000*%
%TD*%
%TA.AperFunction,Conductor*%
%ADD16C,0.300000*%
%TD*%
G04 APERTURE END LIST*
D10*
%TO.P,J1,1,Pin_1*%
%TO.N,/TX*%
X12500000Y875000D03*
D11*
%TO.P,J1,2,Pin_2*%
%TO.N,/RX*%
X9960000Y875000D03*
%TO.P,J1,3,Pin_3*%
%TO.N,/V_EXT*%
X7420000Y875000D03*
%TO.P,J1,4,Pin_4*%
%TO.N,GND*%
X4880000Y875000D03*
%TO.P,J1,5,Pin_5*%
X2340000Y875000D03*
%TD*%
D12*
%TO.P,BT1,1,+*%
%TO.N,+3.3V*%
X7500000Y25850000D03*
X7500000Y3150000D03*
D13*
%TO.P,BT1,2,-*%
%TO.N,GND*%
X7500000Y14500000D03*
%TD*%
D14*
%TO.N,GND*%
X4800000Y23500000D03*
X4800000Y22100000D03*
X9400000Y22800000D03*
X3200000Y19500000D03*
X2300000Y13800000D03*
X7800000Y21300000D03*
X4600000Y19900000D03*
X11300000Y7800000D03*
X9900000Y5400000D03*
X3500000Y16600000D03*
X4200000Y17300000D03*
X8600000Y13300000D03*
X7300000Y7500000D03*
X6700000Y15200000D03*
X2500000Y21200000D03*
X10700000Y15200000D03*
X2600000Y23100000D03*
X3600000Y4900000D03*
X8600000Y11500000D03*
X1900000Y5700000D03*
X5400000Y6800000D03*
X11400000Y9000000D03*
X10500000Y23800000D03*
X6700000Y11500000D03*
X2300000Y18600000D03*
X8600000Y15200000D03*
X10000000Y7500000D03*
X10800000Y17900000D03*
X6700000Y13200000D03*
X10700000Y13200000D03*
X9400000Y23800000D03*
X2300000Y11300000D03*
X10500000Y22800000D03*
X6400000Y7700000D03*
X10700000Y11500000D03*
%TO.N,+3.3V*%
X11800000Y25400000D03*
X9350000Y9150000D03*
X7850000Y9150000D03*
X5900000Y4100000D03*
X13100000Y15200000D03*
%TO.N,/VFBSMPS*%
X10000000Y9100000D03*
X4100000Y12460482D03*
%TO.N,/TX*%
X11388556Y4211444D03*
%TD*%
D15*
%TO.N,+3.3V*%
X7850000Y9150000D02*
X9350000Y9150000D01*
D16*
X13100000Y15200000D02*
X13100000Y6700000D01*
X11300000Y25900000D02*
X7550000Y25900000D01*
X7550000Y25900000D02*
X7500000Y25850000D01*
X9550000Y3150000D02*
X7500000Y3150000D01*
X13100000Y6700000D02*
X9550000Y3150000D01*
X11800000Y25400000D02*
X11300000Y25900000D01*
D15*
X7500000Y3150000D02*
X9650000Y3150000D01*
%TO.N,/VFBSMPS*%
X10000000Y9171752D02*
X8271752Y10900000D01*
X4100000Y12100000D02*
X4100000Y12460482D01*
X8271752Y10900000D02*
X5300000Y10900000D01*
X10000000Y9100000D02*
X10000000Y9171752D01*
X5300000Y10900000D02*
X4100000Y12100000D01*
%TO.N,/TX*%
X12225000Y875000D02*
X12500000Y875000D01*
X11388556Y1711444D02*
X12225000Y875000D01*
X11388556Y4211444D02*
X11388556Y1711444D01*
%TD*%
%TA.AperFunction,Conductor*%
%TO.N,GND*%
G36*
X4184019Y26979815D02*
G01*
X4229774Y26927011D01*
X4239718Y26857853D01*
X4227465Y26819208D01*
X4220254Y26805053D01*
X4204679Y26774486D01*
X4155687Y26591644D01*
X4155687Y26591643D01*
X4149500Y26513024D01*
X4149501Y25186978D01*
X4149501Y25186979D01*
X4155687Y25108357D01*
X4164154Y25076759D01*
X4204680Y24925512D01*
X4207928Y24919138D01*
X4290614Y24756854D01*
X4339859Y24696042D01*
X4409743Y24609743D01*
X4516311Y24523446D01*
X4556853Y24490615D01*
X4640371Y24448062D01*
X4725512Y24404680D01*
X4908355Y24355688D01*
X4939804Y24353213D01*
X4986976Y24349500D01*
X4986978Y24349501D01*
X4986979Y24349500D01*
X8003328Y24349501D01*
X10013021Y24349501D01*
X10039228Y24351564D01*
X10091645Y24355688D01*
X10274488Y24404680D01*
X10403008Y24470165D01*
X10443146Y24490615D01*
X10443147Y24490617D01*
X10443149Y24490617D01*
X10590257Y24609743D01*
X10709383Y24756851D01*
X10795320Y24925512D01*
X10844312Y25108355D01*
X10850500Y25186979D01*
X10850500Y25325501D01*
X10870185Y25392539D01*
X10922989Y25438294D01*
X10974500Y25449500D01*
X11062033Y25449500D01*
X11129072Y25429815D01*
X11149714Y25413182D01*
X11227396Y25335501D01*
X11260881Y25274178D01*
X11262654Y25264009D01*
X11263670Y25256290D01*
X11319137Y25122378D01*
X11319138Y25122376D01*
X11319139Y25122375D01*
X11407379Y25007379D01*
X11522375Y24919139D01*
X11656291Y24863670D01*
X11783280Y24846952D01*
X11799999Y24844750D01*
X11800000Y24844750D01*
X11800001Y24844750D01*
X11814977Y24846722D01*
X11943709Y24863670D01*
X12077625Y24919139D01*
X12192621Y25007379D01*
X12280861Y25122375D01*
X12336330Y25256291D01*
X12355250Y25400000D01*
X12336330Y25543709D01*
X12280861Y25677625D01*
X12192621Y25792621D01*
X12077625Y25880861D01*
X12077624Y25880862D01*
X12077622Y25880863D01*
X11943710Y25936330D01*
X11940002Y25936818D01*
X11935990Y25937347D01*
X11872096Y25965615D01*
X11864499Y25972604D01*
X11638908Y26198195D01*
X11634271Y26203383D01*
X11609878Y26233971D01*
X11560728Y26267481D01*
X11512882Y26302793D01*
X11505297Y26306802D01*
X11497677Y26310471D01*
X11473161Y26318033D01*
X11440822Y26328008D01*
X11420154Y26335240D01*
X11384695Y26347648D01*
X11376326Y26349232D01*
X11367904Y26350500D01*
X11367902Y26350500D01*
X11308426Y26350500D01*
X11248990Y26352725D01*
X11239756Y26351684D01*
X11239662Y26352514D01*
X11224364Y26350500D01*
X10974499Y26350500D01*
X10907460Y26370185D01*
X10861705Y26422989D01*
X10850499Y26474500D01*
X10850499Y26513021D01*
X10844312Y26591644D01*
X10840530Y26605759D01*
X10795320Y26774488D01*
X10772534Y26819207D01*
X10759639Y26887875D01*
X10785916Y26952615D01*
X10843022Y26992872D01*
X10883020Y26999500D01*
X10998378Y26999500D01*
X11001619Y26999416D01*
X11133628Y26992497D01*
X11317027Y26982197D01*
X11323212Y26981535D01*
X11475647Y26957392D01*
X11638194Y26929774D01*
X11643811Y26928547D01*
X11796693Y26887582D01*
X11889122Y26860954D01*
X11951724Y26842918D01*
X11956759Y26841231D01*
X12106183Y26783873D01*
X12254007Y26722642D01*
X12258412Y26720612D01*
X12324180Y26687101D01*
X12401921Y26647489D01*
X12477428Y26605759D01*
X12541480Y26570359D01*
X12545215Y26568118D01*
X12619487Y26519885D01*
X12680872Y26480020D01*
X12768357Y26417947D01*
X12810764Y26387858D01*
X12813886Y26385490D01*
X12938748Y26284379D01*
X12941034Y26282433D01*
X13058721Y26177262D01*
X13061248Y26174872D01*
X13174870Y26061250D01*
X13177260Y26058723D01*
X13282431Y25941036D01*
X13284385Y25938740D01*
X13385480Y25813898D01*
X13387862Y25810757D01*
X13480019Y25680873D01*
X13533758Y25598125D01*
X13568106Y25545233D01*
X13570364Y25541469D01*
X13647488Y25401922D01*
X13720604Y25258425D01*
X13722643Y25254003D01*
X13783877Y25106171D01*
X13841221Y24956783D01*
X13842916Y24951727D01*
X13887579Y24796703D01*
X13928541Y24643829D01*
X13929778Y24638165D01*
X13957394Y24475631D01*
X13981530Y24323241D01*
X13982196Y24317014D01*
X13992506Y24133444D01*
X13999415Y24001623D01*
X13999500Y23998377D01*
X13999500Y4177846D01*
X13979815Y4110807D01*
X13927011Y4065052D01*
X13857853Y4055108D01*
X13794297Y4084133D01*
X13765945Y4119763D01*
X13688118Y4266558D01*
X13571735Y4403574D01*
X13495070Y4461853D01*
X13428618Y4512369D01*
X13428616Y4512370D01*
X13428615Y4512371D01*
X13265457Y4587855D01*
X13089887Y4626500D01*
X12955184Y4626500D01*
X12955182Y4626500D01*
X12821278Y4611937D01*
X12774442Y4596156D01*
X12650915Y4554535D01*
X12650913Y4554535D01*
X12650913Y4554534D01*
X12496876Y4461853D01*
X12366356Y4338219D01*
X12265471Y4189425D01*
X12265470Y4189424D01*
X12198929Y4022417D01*
X12198928Y4022413D01*
X12169845Y3845014D01*
X12169844Y3845011D01*
X12179577Y3665499D01*
X12179578Y3665494D01*
X12227670Y3492282D01*
X12227674Y3492274D01*
X12311881Y3333443D01*
X12428264Y3196427D01*
X12428265Y3196426D01*
X12571382Y3087631D01*
X12734541Y3012146D01*
X12910113Y2973500D01*
X12910116Y2973500D01*
X13044810Y2973500D01*
X13044816Y2973500D01*
X13178721Y2988063D01*
X13349085Y3045465D01*
X13503126Y3138149D01*
X13633642Y3261780D01*
X13734529Y3410577D01*
X13760306Y3475275D01*
X13803407Y3530267D01*
X13869396Y3553228D01*
X13937323Y3536867D01*
X13985622Y3486379D01*
X13999500Y3429378D01*
X13999500Y1002711D01*
X13999264Y997303D01*
X13995523Y954555D01*
X13983082Y828240D01*
X13979454Y808301D01*
X13961601Y741670D01*
X13933318Y648437D01*
X13927040Y632029D01*
X13895614Y564633D01*
X13894101Y561607D01*
X13849236Y477673D01*
X13845342Y471333D01*
X13822939Y439338D01*
X13768363Y395712D01*
X13698864Y388518D01*
X13636509Y420040D01*
X13601095Y480269D01*
X13602096Y544393D01*
X13635756Y662690D01*
X13655429Y875000D01*
X13635756Y1087310D01*
X13577405Y1292389D01*
X13577403Y1292394D01*
X13577403Y1292395D01*
X13482367Y1483254D01*
X13353872Y1653407D01*
X13315782Y1688131D01*
X13196302Y1797052D01*
X13015019Y1909298D01*
X13015017Y1909299D01*
X12915608Y1947810D01*
X12816198Y1986321D01*
X12606610Y2025500D01*
X12393390Y2025500D01*
X12183802Y1986321D01*
X12183799Y1986321D01*
X12183799Y1986320D01*
X11984982Y1909299D01*
X11972562Y1901609D01*
X11953331Y1889702D01*
X11885972Y1871148D01*
X11819273Y1891956D01*
X11774412Y1945522D01*
X11764056Y1995130D01*
X11764056Y3754418D01*
X11783741Y3821457D01*
X11789673Y3829897D01*
X11869417Y3933819D01*
X11924886Y4067735D01*
X11943806Y4211444D01*
X11924886Y4355153D01*
X11869417Y4489069D01*
X11869416Y4489070D01*
X11869416Y4489071D01*
X11786588Y4597013D01*
X11761393Y4662182D01*
X11775431Y4730627D01*
X11797279Y4760178D01*
X13398205Y6361104D01*
X13403373Y6365723D01*
X13433970Y6390121D01*
X13467480Y6439272D01*
X13502793Y6487118D01*
X13502794Y6487121D01*
X13506787Y6494676D01*
X13510470Y6502324D01*
X13510470Y6502325D01*
X13510472Y6502327D01*
X13528007Y6559178D01*
X13547646Y6615301D01*
X13549232Y6623689D01*
X13550500Y6632096D01*
X13550500Y6691574D01*
X13552724Y6751008D01*
X13551684Y6760239D01*
X13552513Y6760333D01*
X13550500Y6775634D01*
X13550500Y14840716D01*
X13570185Y14907755D01*
X13576116Y14916192D01*
X13580861Y14922375D01*
X13636330Y15056291D01*
X13655250Y15200000D01*
X13636330Y15343709D01*
X13580861Y15477625D01*
X13492621Y15592621D01*
X13377625Y15680861D01*
X13377624Y15680862D01*
X13377622Y15680863D01*
X13243712Y15736329D01*
X13243710Y15736330D01*
X13243709Y15736330D01*
X13171854Y15745790D01*
X13100001Y15755250D01*
X13099999Y15755250D01*
X12956291Y15736330D01*
X12956287Y15736329D01*
X12822377Y15680863D01*
X12707379Y15592621D01*
X12619137Y15477623D01*
X12563671Y15343713D01*
X12563670Y15343709D01*
X12544750Y15200001D01*
X12544750Y15200000D01*
X12563670Y15056292D01*
X12563671Y15056288D01*
X12619137Y14922378D01*
X12619138Y14922376D01*
X12619139Y14922375D01*
X12623875Y14916202D01*
X12649070Y14851035D01*
X12649500Y14840716D01*
X12649500Y6937966D01*
X12629815Y6870927D01*
X12613181Y6850285D01*
X10391145Y4628250D01*
X10329822Y4594765D01*
X10271371Y4596156D01*
X10091643Y4644313D01*
X10013024Y4650500D01*
X10013021Y4650500D01*
X5940149Y4650500D01*
X5932054Y4651031D01*
X5907861Y4654216D01*
X5900001Y4655250D01*
X5900000Y4655250D01*
X5867941Y4651031D01*
X5859842Y4650500D01*
X4986978Y4650499D01*
X4986979Y4650499D01*
X4908356Y4644313D01*
X4725512Y4595320D01*
X4556853Y4509386D01*
X4409743Y4390257D01*
X4290614Y4243147D01*
X4204680Y4074488D01*
X4155687Y3891644D01*
X4155687Y3891643D01*
X4149500Y3813024D01*
X4149501Y2486978D01*
X4149501Y2486979D01*
X4155687Y2408357D01*
X4155688Y2408355D01*
X4204680Y2225512D01*
X4214807Y2205636D01*
X4221588Y2192328D01*
X4234484Y2123659D01*
X4208207Y2058919D01*
X4182226Y2034459D01*
X4008926Y1913114D01*
X4008920Y1913109D01*
X3841891Y1746080D01*
X3841890Y1746078D01*
X3711575Y1559969D01*
X3656998Y1516345D01*
X3587499Y1509152D01*
X3525145Y1540674D01*
X3508425Y1559969D01*
X3378109Y1746078D01*
X3378108Y1746080D01*
X3211082Y1913106D01*
X3017578Y2048601D01*
X2803492Y2148430D01*
X2803486Y2148433D01*
X2590000Y2205636D01*
X2590000Y1310502D01*
X2482315Y1359680D01*
X2375763Y1375000D01*
X2304237Y1375000D01*
X2197685Y1359680D01*
X2090000Y1310502D01*
X2090000Y2205636D01*
X2089999Y2205636D01*
X1876513Y2148433D01*
X1876507Y2148430D01*
X1662422Y2048601D01*
X1662420Y2048600D01*
X1468926Y1913114D01*
X1468920Y1913109D01*
X1301891Y1746080D01*
X1301890Y1746078D01*
X1226075Y1637803D01*
X1171498Y1594179D01*
X1101999Y1586986D01*
X1039645Y1618508D01*
X1004231Y1678738D01*
X1000500Y1708927D01*
X1000500Y12460482D01*
X3544750Y12460482D01*
X3563670Y12316774D01*
X3563671Y12316770D01*
X3619138Y12182859D01*
X3619139Y12182856D01*
X3708627Y12066235D01*
X3733300Y12006088D01*
X3735134Y11991373D01*
X3737373Y11983853D01*
X3739934Y11976392D01*
X3739935Y11976390D01*
X3766055Y11928124D01*
X3766055Y11928123D01*
X3790174Y11878789D01*
X3794742Y11872391D01*
X3799582Y11866173D01*
X3839971Y11828991D01*
X4997849Y10671114D01*
X5013977Y10651255D01*
X5019916Y10642164D01*
X5047932Y10620359D01*
X5053693Y10615270D01*
X5056482Y10612481D01*
X5075483Y10598915D01*
X5118810Y10565191D01*
X5118811Y10565191D01*
X5125722Y10561451D01*
X5132800Y10557990D01*
X5185405Y10542330D01*
X5185405Y10542329D01*
X5237340Y10524500D01*
X5237342Y10524500D01*
X5245079Y10523209D01*
X5252909Y10522233D01*
X5252911Y10522232D01*
X5252912Y10522233D01*
X5252913Y10522232D01*
X5307755Y10524500D01*
X8064853Y10524500D01*
X8131892Y10504815D01*
X8152534Y10488181D01*
X8903533Y9737181D01*
X8937018Y9675858D01*
X8932034Y9606166D01*
X8890162Y9550233D01*
X8824698Y9525816D01*
X8815852Y9525500D01*
X8307026Y9525500D01*
X8239987Y9545185D01*
X8231547Y9551118D01*
X8127625Y9630861D01*
X8127624Y9630862D01*
X8127622Y9630863D01*
X7993712Y9686329D01*
X7993710Y9686330D01*
X7993709Y9686330D01*
X7921854Y9695790D01*
X7850001Y9705250D01*
X7849999Y9705250D01*
X7706291Y9686330D01*
X7706287Y9686329D01*
X7572377Y9630863D01*
X7457379Y9542621D01*
X7369137Y9427623D01*
X7313671Y9293713D01*
X7313670Y9293709D01*
X7294750Y9150001D01*
X7294750Y9150000D01*
X7313670Y9006292D01*
X7313671Y9006288D01*
X7369137Y8872378D01*
X7369138Y8872376D01*
X7369139Y8872375D01*
X7457379Y8757379D01*
X7572375Y8669139D01*
X7706291Y8613670D01*
X7833280Y8596952D01*
X7849999Y8594750D01*
X7850000Y8594750D01*
X7850001Y8594750D01*
X7864977Y8596722D01*
X7993709Y8613670D01*
X8127625Y8669139D01*
X8231540Y8748877D01*
X8296709Y8774070D01*
X8307026Y8774500D01*
X8892974Y8774500D01*
X8960013Y8754815D01*
X8968452Y8748883D01*
X9072375Y8669139D01*
X9206291Y8613670D01*
X9333280Y8596952D01*
X9349999Y8594750D01*
X9350000Y8594750D01*
X9350001Y8594750D01*
X9364977Y8596722D01*
X9493709Y8613670D01*
X9580702Y8649704D01*
X9650167Y8657172D01*
X9703636Y8633518D01*
X9722375Y8619139D01*
X9722376Y8619139D01*
X9722377Y8619138D01*
X9767013Y8600650D01*
X9856291Y8563670D01*
X9983280Y8546952D01*
X9999999Y8544750D01*
X10000000Y8544750D01*
X10000001Y8544750D01*
X10014977Y8546722D01*
X10143709Y8563670D01*
X10277625Y8619139D01*
X10392621Y8707379D01*
X10480861Y8822375D01*
X10536330Y8956291D01*
X10555250Y9100000D01*
X10536330Y9243709D01*
X10480861Y9377625D01*
X10392621Y9492621D01*
X10277625Y9580861D01*
X10277624Y9580862D01*
X10277622Y9580863D01*
X10143709Y9636330D01*
X10096476Y9642549D01*
X10032580Y9670817D01*
X10024982Y9677807D01*
X8573901Y11128889D01*
X8557774Y11148748D01*
X8551838Y11157833D01*
X8551835Y11157837D01*
X8523826Y11179637D01*
X8518062Y11184728D01*
X8515267Y11187523D01*
X8496257Y11201094D01*
X8452941Y11234810D01*
X8446026Y11238552D01*
X8438952Y11242010D01*
X8386348Y11257671D01*
X8334410Y11275501D01*
X8326675Y11276792D01*
X8318837Y11277769D01*
X8263996Y11275500D01*
X5506899Y11275500D01*
X5439860Y11295185D01*
X5419218Y11311819D01*
X4629875Y12101163D01*
X4596390Y12162486D01*
X4601374Y12232178D01*
X4602971Y12236237D01*
X4636330Y12316773D01*
X4655250Y12460482D01*
X4636330Y12604191D01*
X4580861Y12738107D01*
X4492621Y12853103D01*
X4377625Y12941343D01*
X4377624Y12941344D01*
X4377622Y12941345D01*
X4243712Y12996811D01*
X4243710Y12996812D01*
X4243709Y12996812D01*
X4171854Y13006272D01*
X4100001Y13015732D01*
X4099999Y13015732D01*
X3956291Y12996812D01*
X3956287Y12996811D01*
X3822377Y12941345D01*
X3707379Y12853103D01*
X3619137Y12738105D01*
X3563671Y12604195D01*
X3563670Y12604191D01*
X3544750Y12460483D01*
X3544750Y12460482D01*
X1000500Y12460482D01*
X1000500Y23998377D01*
X1000585Y24001623D01*
X1007494Y24133444D01*
X1011825Y24210576D01*
X1017803Y24317028D01*
X1018464Y24323211D01*
X1042611Y24475669D01*
X1045151Y24490615D01*
X1070227Y24638204D01*
X1071451Y24643804D01*
X1071774Y24645011D01*
X1669844Y24645011D01*
X1679577Y24465499D01*
X1679578Y24465494D01*
X1727670Y24292282D01*
X1727674Y24292274D01*
X1811881Y24133443D01*
X1925145Y24000099D01*
X1928265Y23996426D01*
X2071382Y23887631D01*
X2234541Y23812146D01*
X2410113Y23773500D01*
X2410116Y23773500D01*
X2544810Y23773500D01*
X2544816Y23773500D01*
X2678721Y23788063D01*
X2849085Y23845465D01*
X3003126Y23938149D01*
X3133642Y24061780D01*
X3234529Y24210577D01*
X3301070Y24377584D01*
X3305513Y24404680D01*
X3330155Y24554990D01*
X3320422Y24734502D01*
X3320421Y24734507D01*
X3272329Y24907719D01*
X3272325Y24907727D01*
X3188118Y25066558D01*
X3071735Y25203574D01*
X2999580Y25258425D01*
X2928618Y25312369D01*
X2928616Y25312370D01*
X2928615Y25312371D01*
X2765457Y25387855D01*
X2589887Y25426500D01*
X2455184Y25426500D01*
X2455182Y25426500D01*
X2321278Y25411937D01*
X2263707Y25392539D01*
X2150915Y25354535D01*
X2150913Y25354535D01*
X2150913Y25354534D01*
X1996876Y25261853D01*
X1866356Y25138219D01*
X1765471Y24989425D01*
X1765470Y24989424D01*
X1698929Y24822417D01*
X1698928Y24822413D01*
X1669845Y24645014D01*
X1669844Y24645011D01*
X1071774Y24645011D01*
X1112425Y24796721D01*
X1157083Y24951732D01*
X1158764Y24956746D01*
X1216127Y25106185D01*
X1277366Y25254028D01*
X1279379Y25258394D01*
X1352511Y25401922D01*
X1359688Y25414910D01*
X1429655Y25541506D01*
X1431867Y25545192D01*
X1519980Y25680873D01*
X1534130Y25700818D01*
X1612154Y25810780D01*
X1614486Y25813857D01*
X1715655Y25938791D01*
X1717537Y25941002D01*
X1822773Y26058761D01*
X1825092Y26061213D01*
X1938787Y26174908D01*
X1941239Y26177227D01*
X2058998Y26282463D01*
X2061209Y26284345D01*
X2186143Y26385514D01*
X2189220Y26387846D01*
X2319127Y26480020D01*
X2329046Y26486463D01*
X2454808Y26568133D01*
X2458494Y26570345D01*
X2598078Y26647489D01*
X2610063Y26653597D01*
X2741606Y26720621D01*
X2745972Y26722634D01*
X2893815Y26783873D01*
X3043254Y26841236D01*
X3048268Y26842917D01*
X3203279Y26887575D01*
X3356196Y26928549D01*
X3361796Y26929773D01*
X3524284Y26957382D01*
X3676791Y26981536D01*
X3682968Y26982197D01*
X3866566Y26992507D01*
X3998380Y26999416D01*
X4001622Y26999500D01*
X4116980Y26999500D01*
X4184019Y26979815D01*
G37*
%TD.AperFunction*%
%TA.AperFunction,Conductor*%
G36*
X4420507Y1084844D02*
G01*
X4380000Y946889D01*
X4380000Y803111D01*
X4420507Y665156D01*
X4446314Y625000D01*
X2773686Y625000D01*
X2799493Y665156D01*
X2840000Y803111D01*
X2840000Y946889D01*
X2799493Y1084844D01*
X2773686Y1125000D01*
X4446314Y1125000D01*
X4420507Y1084844D01*
G37*
%TD.AperFunction*%
%TD*%
M02*
