M48
; DRILL file {KiCad 8.0.7} date 2025-01-18T23:57:26+0100
; FORMAT={-:-/ absolute / inch / decimal}
; #@! TF.CreationDate,2025-01-18T23:57:26+01:00
; #@! TF.GenerationSoftware,Kicad,Pcbnew,8.0.7
; #@! TF.FileFunction,Plated,1,2,PTH
FMAT,2
INCH
; #@! TA.AperFunction,Plated,PTH,ViaDrill
T1C0.0118
; #@! TA.AperFunction,Plated,PTH,ViaDrill
T2C0.0197
; #@! TA.AperFunction,Plated,PTH,ComponentDrill
T3C0.0394
%
G90
G05
T1
X0.0748Y0.2244
X0.0906Y0.7323
X0.0906Y0.5433
X0.0906Y0.4449
X0.1024Y0.9094
X0.1181Y0.8228
X0.126Y0.7677
X0.1378Y0.6535
X0.1417Y0.1929
X0.1614Y0.8937
X0.1614Y0.4906
X0.1654Y0.6811
X0.1811Y0.7835
X0.189Y0.9252
X0.2126Y0.2677
X0.252Y0.3031
X0.2638Y0.5984
X0.2638Y0.5197
X0.2638Y0.4528
X0.2874Y0.2953
X0.3071Y0.8386
X0.3091Y0.3602
X0.3386Y0.5984
X0.3386Y0.5236
X0.3386Y0.4528
X0.3681Y0.3602
X0.3701Y0.937
X0.3701Y0.8976
X0.3898Y0.2126
X0.3937Y0.3583
X0.3937Y0.2953
X0.4134Y0.937
X0.4134Y0.8976
X0.4213Y0.5984
X0.4213Y0.5197
X0.4213Y0.4528
X0.4252Y0.7047
X0.4449Y0.3071
X0.4484Y0.1658
X0.4488Y0.3543
X0.4646Y1.0
X0.5157Y0.5984
T2
X0.1693Y0.1299
X0.1772Y1.0157
X0.2205Y1.0394
X0.2205Y0.9921
X0.2441Y0.1299
X0.2953Y0.1299
X0.3465Y0.1299
X0.3465Y0.0906
X0.3858Y1.0374
T3
X0.0921Y0.0315
X0.1921Y0.0315
X0.2921Y0.0315
X0.3921Y0.0315
X0.4921Y0.0315
M30
