%TF.GenerationSoftware,KiCad,Pcbnew,8.0.7*%
%TF.CreationDate,2025-01-18T23:57:26+01:00*%
%TF.ProjectId,beacon,62656163-6f6e-42e6-9b69-6361645f7063,rev?*%
%TF.SameCoordinates,Original*%
%TF.FileFunction,Legend,Top*%
%TF.FilePolarity,Positive*%
%FSLAX46Y46*%
G04 Gerber Fmt 4.6, Leading zero omitted, Abs format (unit mm)*
G04 Created by KiCad (PCBNEW 8.0.7) date 2025-01-18 23:57:26*
%MOMM*%
%LPD*%
G01*
G04 APERTURE LIST*
G04 Aperture macros list*
%AMRoundRect*
0 Rectangle with rounded corners*
0 $1 Rounding radius*
0 $2 $3 $4 $5 $6 $7 $8 $9 X,Y pos of 4 corners*
0 Add a 4 corners polygon primitive as box body*
4,1,4,$2,$3,$4,$5,$6,$7,$8,$9,$2,$3,0*
0 Add four circle primitives for the rounded corners*
1,1,$1+$1,$2,$3*
1,1,$1+$1,$4,$5*
1,1,$1+$1,$6,$7*
1,1,$1+$1,$8,$9*
0 Add four rect primitives between the rounded corners*
20,1,$1+$1,$2,$3,$4,$5,0*
20,1,$1+$1,$4,$5,$6,$7,0*
20,1,$1+$1,$6,$7,$8,$9,0*
20,1,$1+$1,$8,$9,$2,$3,0*%
G04 Aperture macros list end*
%ADD10C,0.150000*%
%ADD11C,0.160000*%
%ADD12C,0.120000*%
%ADD13C,0.100000*%
%ADD14C,1.500000*%
%ADD15RoundRect,0.147500X0.172500X-0.147500X0.172500X0.147500X-0.172500X0.147500X-0.172500X-0.147500X0*%
%ADD16RoundRect,0.140000X0.140000X0.170000X-0.140000X0.170000X-0.140000X-0.170000X0.140000X-0.170000X0*%
%ADD17RoundRect,0.500000X-0.500000X-1.250000X0.500000X-1.250000X0.500000X1.250000X-0.500000X1.250000X0*%
%ADD18RoundRect,0.140000X-0.170000X0.140000X-0.170000X-0.140000X0.170000X-0.140000X0.170000X0.140000X0*%
%ADD19RoundRect,0.062500X0.375000X0.062500X-0.375000X0.062500X-0.375000X-0.062500X0.375000X-0.062500X0*%
%ADD20RoundRect,0.062500X0.062500X0.375000X-0.062500X0.375000X-0.062500X-0.375000X0.062500X-0.375000X0*%
%ADD21R,5.600000X5.600000*%
%ADD22RoundRect,0.135000X0.185000X-0.135000X0.185000X0.135000X-0.185000X0.135000X-0.185000X-0.135000X0*%
%ADD23C,1.300000*%
%ADD24RoundRect,0.140000X0.170000X-0.140000X0.170000X0.140000X-0.170000X0.140000X-0.170000X-0.140000X0*%
%ADD25RoundRect,0.150000X-0.150000X0.587500X-0.150000X-0.587500X0.150000X-0.587500X0.150000X0.587500X0*%
%ADD26C,1.000000*%
%ADD27RoundRect,0.140000X-0.140000X-0.170000X0.140000X-0.170000X0.140000X0.170000X-0.140000X0.170000X0*%
%ADD28RoundRect,0.135000X-0.185000X0.135000X-0.185000X-0.135000X0.185000X-0.135000X0.185000X0.135000X0*%
%ADD29R,0.800000X0.900000*%
%ADD30RoundRect,0.125000X-0.125000X0.150000X-0.125000X-0.150000X0.125000X-0.150000X0.125000X0.150000X0*%
%ADD31RoundRect,0.147500X-0.147500X-0.172500X0.147500X-0.172500X0.147500X0.172500X-0.147500X0.172500X0*%
%ADD32RoundRect,0.218750X-0.218750X-0.256250X0.218750X-0.256250X0.218750X0.256250X-0.218750X0.256250X0*%
G04 APERTURE END LIST*
D10*
X10700000Y4650000D02*
X10300000Y4350000D01*
X12700000Y6400000D02*
X12700000Y7400000D01*
X12300000Y6000000D02*
X12700000Y6400000D01*
X10700000Y4900000D02*
X10700000Y4650000D01*
X1808207Y2767610D02*
X1732017Y2805705D01*
X1732017Y2805705D02*
X1617731Y2805705D01*
X1617731Y2805705D02*
X1503445Y2767610D01*
X1503445Y2767610D02*
X1427255Y2691420D01*
X1427255Y2691420D02*
X1389160Y2615229D01*
X1389160Y2615229D02*
X1351064Y2462848D01*
X1351064Y2462848D02*
X1351064Y2348562D01*
X1351064Y2348562D02*
X1389160Y2196181D01*
X1389160Y2196181D02*
X1427255Y2119991D01*
X1427255Y2119991D02*
X1503445Y2043800D01*
X1503445Y2043800D02*
X1617731Y2005705D01*
X1617731Y2005705D02*
X1693922Y2005705D01*
X1693922Y2005705D02*
X1808207Y2043800D01*
X1808207Y2043800D02*
X1846303Y2081896D01*
X1846303Y2081896D02*
X1846303Y2348562D01*
X1846303Y2348562D02*
X1693922Y2348562D01*
X2189160Y2005705D02*
X2189160Y2805705D01*
X2189160Y2805705D02*
X2646303Y2005705D01*
X2646303Y2005705D02*
X2646303Y2805705D01*
X3027255Y2005705D02*
X3027255Y2805705D01*
X3027255Y2805705D02*
X3217731Y2805705D01*
X3217731Y2805705D02*
X3332017Y2767610D01*
X3332017Y2767610D02*
X3408207Y2691420D01*
X3408207Y2691420D02*
X3446302Y2615229D01*
X3446302Y2615229D02*
X3484398Y2462848D01*
X3484398Y2462848D02*
X3484398Y2348562D01*
X3484398Y2348562D02*
X3446302Y2196181D01*
X3446302Y2196181D02*
X3408207Y2119991D01*
X3408207Y2119991D02*
X3332017Y2043800D01*
X3332017Y2043800D02*
X3217731Y2005705D01*
X3217731Y2005705D02*
X3027255Y2005705D01*
X11884398Y24675086D02*
X11798684Y24717943D01*
X11798684Y24717943D02*
X11670112Y24717943D01*
X11670112Y24717943D02*
X11541541Y24675086D01*
X11541541Y24675086D02*
X11455826Y24589372D01*
X11455826Y24589372D02*
X11412969Y24503658D01*
X11412969Y24503658D02*
X11370112Y24332229D01*
X11370112Y24332229D02*
X11370112Y24203658D01*
X11370112Y24203658D02*
X11412969Y24032229D01*
X11412969Y24032229D02*
X11455826Y23946515D01*
X11455826Y23946515D02*
X11541541Y23860800D01*
X11541541Y23860800D02*
X11670112Y23817943D01*
X11670112Y23817943D02*
X11755826Y23817943D01*
X11755826Y23817943D02*
X11884398Y23860800D01*
X11884398Y23860800D02*
X11927255Y23903658D01*
X11927255Y23903658D02*
X11927255Y24203658D01*
X11927255Y24203658D02*
X11755826Y24203658D01*
X12312969Y23817943D02*
X12312969Y24717943D01*
X12312969Y24717943D02*
X12827255Y23817943D01*
X12827255Y23817943D02*
X12827255Y24717943D01*
X13255826Y23817943D02*
X13255826Y24717943D01*
X13255826Y24717943D02*
X13470112Y24717943D01*
X13470112Y24717943D02*
X13598683Y24675086D01*
X13598683Y24675086D02*
X13684398Y24589372D01*
X13684398Y24589372D02*
X13727255Y24503658D01*
X13727255Y24503658D02*
X13770112Y24332229D01*
X13770112Y24332229D02*
X13770112Y24203658D01*
X13770112Y24203658D02*
X13727255Y24032229D01*
X13727255Y24032229D02*
X13684398Y23946515D01*
X13684398Y23946515D02*
X13598683Y23860800D01*
X13598683Y23860800D02*
X13470112Y23817943D01*
X13470112Y23817943D02*
X13255826Y23817943D01*
X6674874Y2805705D02*
X6941541Y2005705D01*
X6941541Y2005705D02*
X7208207Y2805705D01*
X7474874Y2310467D02*
X8084398Y2310467D01*
X7779636Y2005705D02*
X7779636Y2615229D01*
X3670112Y24175086D02*
X4098684Y24175086D01*
X3584398Y23917943D02*
X3884398Y24817943D01*
X3884398Y24817943D02*
X4184398Y23917943D01*
X4484398Y23917943D02*
X4484398Y24817943D01*
X4484398Y24817943D02*
X4998684Y23917943D01*
X4998684Y23917943D02*
X4998684Y24817943D01*
X5298684Y24817943D02*
X5812970Y24817943D01*
X5555827Y23917943D02*
X5555827Y24817943D01*
D11*
G36*
X2341842Y21799469D02*
G01*
X2380457Y21787929D01*
X2415115Y21766497D01*
X2430511Y21752566D01*
X2456895Y21717292D01*
X2473733Y21675052D01*
X2148988Y21675052D01*
X2155359Y21690068D01*
X2175317Y21728028D01*
X2203893Y21762100D01*
X2234954Y21782966D01*
X2272603Y21796992D01*
X2313900Y21801668D01*
X2341842Y21799469D01*
G37*
G36*
X3034955Y21787388D02*
G01*
X3076259Y21779995D01*
X3112716Y21762040D01*
X3144326Y21733524D01*
X3152672Y21723132D01*
X3174562Y21684252D01*
X3187331Y21638846D01*
X3191025Y21592400D01*
X3190615Y21576047D01*
X3184458Y21530556D01*
X3168953Y21486292D01*
X3144326Y21448639D01*
X3138394Y21441984D01*
X3105894Y21415151D01*
X3068663Y21399051D01*
X3026699Y21393684D01*
X3018210Y21393902D01*
X2978284Y21401536D01*
X2942556Y21420075D01*
X2911025Y21449518D01*
X2902645Y21460258D01*
X2880663Y21499962D01*
X2867840Y21545678D01*
X2864131Y21591961D01*
X2864536Y21607764D01*
X2870615Y21651930D01*
X2885926Y21695293D01*
X2910244Y21732645D01*
X2916100Y21739299D01*
X2948153Y21766133D01*
X2984824Y21782233D01*
X3026113Y21787599D01*
X3034955Y21787388D01*
G37*
G36*
X4490029Y21787386D02*
G01*
X4531131Y21779933D01*
X4567271Y21761832D01*
X4598450Y21733084D01*
X4606656Y21722614D01*
X4628180Y21683528D01*
X4640736Y21638001D01*
X4644368Y21591521D01*
X4643958Y21575478D01*
X4637801Y21530686D01*
X4622295Y21486791D01*
X4597669Y21449079D01*
X4591739Y21442371D01*
X4559320Y21415323D01*
X4522282Y21399094D01*
X4480628Y21393684D01*
X4471930Y21393898D01*
X4431306Y21401381D01*
X4395452Y21419555D01*
X4364368Y21448419D01*
X4356162Y21458978D01*
X4334638Y21498442D01*
X4322082Y21544475D01*
X4318450Y21591521D01*
X4318857Y21607364D01*
X4324962Y21651624D01*
X4340338Y21695051D01*
X4364759Y21732425D01*
X4370663Y21739106D01*
X4402934Y21766047D01*
X4439784Y21782211D01*
X4481214Y21787599D01*
X4490029Y21787386D01*
G37*
G36*
X1589177Y21660847D02*
G01*
X1629672Y21657571D01*
X1671224Y21647331D01*
X1707787Y21626033D01*
X1719045Y21614551D01*
X1740417Y21575722D01*
X1746866Y21530851D01*
X1746834Y21527551D01*
X1738562Y21483975D01*
X1713649Y21449738D01*
X1706871Y21444749D01*
X1668770Y21429700D01*
X1628653Y21423566D01*
X1584689Y21421821D01*
X1546196Y21421821D01*
X1546196Y21660984D01*
X1578046Y21660984D01*
X1589177Y21660847D01*
G37*
G36*
X1626862Y21994039D02*
G01*
X1664410Y21974665D01*
X1680127Y21954448D01*
X1690202Y21910038D01*
X1685719Y21877650D01*
X1663042Y21841015D01*
X1657695Y21836497D01*
X1620595Y21819908D01*
X1579804Y21815736D01*
X1546196Y21815736D01*
X1546196Y21998625D01*
X1585861Y21998625D01*
X1626862Y21994039D01*
G37*
G36*
X5545094Y21138932D02*
G01*
X1292421Y21138932D01*
X1292421Y21815736D01*
X1392421Y21815736D01*
X1392421Y21421821D01*
X1392421Y21253000D01*
X1618883Y21253000D01*
X1648383Y21253779D01*
X1691296Y21258261D01*
X1733268Y21268066D01*
X1772072Y21284874D01*
X1807822Y21310606D01*
X1838769Y21343974D01*
X1862735Y21380935D01*
X1866994Y21389039D01*
X1884167Y21431157D01*
X1894471Y21475936D01*
X1897906Y21523377D01*
X1897772Y21533459D01*
X1893097Y21581317D01*
X1891642Y21586905D01*
X1997362Y21586905D01*
X1998138Y21559319D01*
X2002882Y21515299D01*
X2014266Y21465706D01*
X2031861Y21419637D01*
X2055665Y21377092D01*
X2085680Y21338070D01*
X2114614Y21309510D01*
X2152698Y21281627D01*
X2194449Y21260715D01*
X2232045Y21248614D01*
X2272187Y21241352D01*
X2314877Y21238932D01*
X2353355Y21240636D01*
X2394421Y21246757D01*
X2432386Y21257329D01*
X2471388Y21274543D01*
X2495495Y21289347D01*
X2529182Y21316683D01*
X2559902Y21350174D01*
X2584717Y21385111D01*
X2458297Y21451057D01*
X2426618Y21419802D01*
X2391960Y21397476D01*
X2354323Y21384081D01*
X2313705Y21379616D01*
X2272184Y21384081D01*
X2232152Y21399307D01*
X2198032Y21425338D01*
X2170999Y21460513D01*
X2152232Y21503168D01*
X2142344Y21548437D01*
X2624382Y21548437D01*
X2624968Y21579871D01*
X2624640Y21589323D01*
X2714654Y21589323D01*
X2715398Y21561764D01*
X2719942Y21517731D01*
X2730848Y21468022D01*
X2747703Y21421728D01*
X2770507Y21378851D01*
X2799260Y21339389D01*
X2809958Y21327224D01*
X2843517Y21295439D01*
X2879274Y21270717D01*
X2917229Y21253059D01*
X2957383Y21242464D01*
X2999734Y21238932D01*
X3015673Y21239431D01*
X3055417Y21245400D01*
X3095478Y21259375D01*
X3120396Y21272909D01*
X3153525Y21297283D01*
X3183796Y21325980D01*
X3183796Y21253000D01*
X3333272Y21253000D01*
X3333272Y21588224D01*
X3452267Y21588224D01*
X3453052Y21562241D01*
X3459331Y21512153D01*
X3471888Y21464569D01*
X3490724Y21419489D01*
X3515838Y21376913D01*
X3541563Y21343346D01*
X3552992Y21330702D01*
X3583902Y21302661D01*
X3618151Y21279719D01*
X3655740Y21261875D01*
X3696668Y21249129D01*
X3740935Y21241481D01*
X3788541Y21238932D01*
X3820743Y21240134D01*
X3861510Y21245475D01*
X3908983Y21258159D01*
X3952583Y21277520D01*
X3992308Y21303557D01*
X4028160Y21336270D01*
X4060139Y21375659D01*
X3941926Y21464026D01*
X3938377Y21459699D01*
X3906858Y21430023D01*
X3869769Y21409140D01*
X3827112Y21397050D01*
X3785219Y21393684D01*
X3770253Y21394160D01*
X3728653Y21401289D01*
X3688230Y21419243D01*
X3653914Y21447760D01*
X3644975Y21458175D01*
X3621528Y21496884D01*
X3607850Y21541732D01*
X3603893Y21587345D01*
X3603993Y21589982D01*
X4168974Y21589982D01*
X4169772Y21562919D01*
X4176161Y21511110D01*
X4188938Y21462393D01*
X4208103Y21416767D01*
X4233657Y21374232D01*
X4259832Y21341148D01*
X4277234Y21322881D01*
X4314017Y21291737D01*
X4353438Y21267780D01*
X4395497Y21251010D01*
X4440193Y21241428D01*
X4479455Y21238932D01*
X4522198Y21241831D01*
X4563084Y21250528D01*
X4602114Y21265022D01*
X4639288Y21285314D01*
X4673714Y21310758D01*
X4704305Y21340708D01*
X4731062Y21375165D01*
X4753984Y21414128D01*
X4772363Y21456113D01*
X4785491Y21499637D01*
X4793368Y21544700D01*
X4795994Y21591301D01*
X4793381Y21637532D01*
X4785540Y21682141D01*
X4772473Y21725130D01*
X4754180Y21766497D01*
X4731306Y21804937D01*
X4704305Y21839147D01*
X4673176Y21869124D01*
X4637920Y21894871D01*
X4600062Y21915644D01*
X4566731Y21928283D01*
X4914794Y21928283D01*
X4914794Y21253000D01*
X5064270Y21253000D01*
X5064270Y21522498D01*
X5064588Y21564858D01*
X5066145Y21613184D01*
X5070914Y21658786D01*
X5075313Y21677032D01*
X5091350Y21718446D01*
X5116050Y21753308D01*
X5120203Y21757460D01*
X5154567Y21780064D01*
X5194598Y21787599D01*
X5217439Y21785158D01*
X5253607Y21766936D01*
X5270748Y21747028D01*
X5287215Y21706706D01*
X5290469Y21689107D01*
X5294686Y21642069D01*
X5296331Y21595852D01*
X5296789Y21547118D01*
X5296789Y21253000D01*
X5445094Y21253000D01*
X5445094Y21697034D01*
X5442597Y21745173D01*
X5433631Y21793492D01*
X5418142Y21834667D01*
X5392923Y21872449D01*
X5360170Y21903031D01*
X5324047Y21924876D01*
X5284553Y21937983D01*
X5241688Y21942352D01*
X5236274Y21942279D01*
X5196151Y21937078D01*
X5156887Y21923667D01*
X5130043Y21909293D01*
X5095312Y21884563D01*
X5064270Y21857721D01*
X5064270Y21928283D01*
X4914794Y21928283D01*
X4566731Y21928283D01*
X4560935Y21930481D01*
X4520537Y21939384D01*
X4478869Y21942352D01*
X4464344Y21941996D01*
X4422034Y21936664D01*
X4381619Y21924933D01*
X4343101Y21906803D01*
X4306478Y21882274D01*
X4271751Y21851347D01*
X4259305Y21838064D01*
X4231704Y21803076D01*
X4209121Y21765545D01*
X4191557Y21725470D01*
X4179011Y21682851D01*
X4171483Y21637689D01*
X4169055Y21591521D01*
X4168974Y21589982D01*
X3603993Y21589982D01*
X3604706Y21608780D01*
X3612471Y21653419D01*
X3630744Y21697185D01*
X3655868Y21731326D01*
X3676485Y21750450D01*
X3711636Y21771717D01*
X3751856Y21784082D01*
X3791863Y21787599D01*
X3832518Y21784218D01*
X3872365Y21772212D01*
X3876667Y21770194D01*
X3911301Y21747251D01*
X3941926Y21717257D01*
X4066587Y21792655D01*
X4051852Y21814313D01*
X4022156Y21849239D01*
X3988380Y21878950D01*
X3950523Y21903444D01*
X3914009Y21920466D01*
X3875198Y21932625D01*
X3834092Y21939920D01*
X3790690Y21942352D01*
X3778745Y21942169D01*
X3738068Y21938648D01*
X3699148Y21930646D01*
X3656821Y21916015D01*
X3616789Y21895530D01*
X3580055Y21870031D01*
X3547620Y21840136D01*
X3519483Y21805844D01*
X3495645Y21767156D01*
X3476667Y21725308D01*
X3463112Y21681537D01*
X3454979Y21635842D01*
X3452267Y21588224D01*
X3333272Y21588224D01*
X3333272Y21928283D01*
X3183796Y21928283D01*
X3183796Y21852885D01*
X3165925Y21871421D01*
X3133681Y21898154D01*
X3096454Y21919930D01*
X3075459Y21928667D01*
X3034829Y21939198D01*
X2995436Y21942352D01*
X2980943Y21941964D01*
X2939113Y21936155D01*
X2899757Y21923376D01*
X2862873Y21903626D01*
X2828462Y21876905D01*
X2796524Y21843213D01*
X2777336Y21817608D01*
X2753351Y21775915D01*
X2735122Y21730282D01*
X2722649Y21680706D01*
X2716653Y21636383D01*
X2714766Y21591961D01*
X2714654Y21589323D01*
X2624640Y21589323D01*
X2623585Y21619706D01*
X2617967Y21666699D01*
X2608026Y21710579D01*
X2590392Y21759126D01*
X2566535Y21803191D01*
X2536454Y21842774D01*
X2507506Y21871461D01*
X2469367Y21899467D01*
X2427520Y21920472D01*
X2389813Y21932627D01*
X2349530Y21939920D01*
X2306671Y21942352D01*
X2282150Y21941463D01*
X2243021Y21936032D01*
X2198938Y21922997D01*
X2157988Y21902853D01*
X2120170Y21875599D01*
X2085484Y21841235D01*
X2064831Y21815142D01*
X2039013Y21772950D01*
X2019392Y21727094D01*
X2005967Y21677576D01*
X2005597Y21675052D01*
X1999513Y21633512D01*
X1997362Y21586905D01*
X1891642Y21586905D01*
X1881744Y21624924D01*
X1863712Y21664281D01*
X1852119Y21682414D01*
X1823123Y21715782D01*
X1790403Y21742509D01*
X1756050Y21763639D01*
X1766659Y21772895D01*
X1795868Y21804070D01*
X1819553Y21842114D01*
X1821919Y21847373D01*
X1834799Y21889220D01*
X1839092Y21935317D01*
X1838924Y21945073D01*
X1833047Y21991433D01*
X1818774Y22033757D01*
X1796106Y22072044D01*
X1787821Y22082605D01*
X1756436Y22113173D01*
X1719250Y22136615D01*
X1680823Y22151619D01*
X1677578Y22152593D01*
X1638743Y22160630D01*
X1599322Y22164834D01*
X1558738Y22166889D01*
X1519427Y22167446D01*
X1392421Y22167446D01*
X1392421Y21815736D01*
X1292421Y21815736D01*
X1292421Y22267446D01*
X5545094Y22267446D01*
X5545094Y21138932D01*
G37*
D10*
X9827255Y2005705D02*
X9527255Y2386658D01*
X9312969Y2005705D02*
X9312969Y2805705D01*
X9312969Y2805705D02*
X9655826Y2805705D01*
X9655826Y2805705D02*
X9741541Y2767610D01*
X9741541Y2767610D02*
X9784398Y2729515D01*
X9784398Y2729515D02*
X9827255Y2653324D01*
X9827255Y2653324D02*
X9827255Y2539039D01*
X9827255Y2539039D02*
X9784398Y2462848D01*
X9784398Y2462848D02*
X9741541Y2424753D01*
X9741541Y2424753D02*
X9655826Y2386658D01*
X9655826Y2386658D02*
X9312969Y2386658D01*
X10127255Y2805705D02*
X10727255Y2005705D01*
X10727255Y2805705D02*
X10127255Y2005705D01*
X4408207Y2767610D02*
X4332017Y2805705D01*
X4332017Y2805705D02*
X4217731Y2805705D01*
X4217731Y2805705D02*
X4103445Y2767610D01*
X4103445Y2767610D02*
X4027255Y2691420D01*
X4027255Y2691420D02*
X3989160Y2615229D01*
X3989160Y2615229D02*
X3951064Y2462848D01*
X3951064Y2462848D02*
X3951064Y2348562D01*
X3951064Y2348562D02*
X3989160Y2196181D01*
X3989160Y2196181D02*
X4027255Y2119991D01*
X4027255Y2119991D02*
X4103445Y2043800D01*
X4103445Y2043800D02*
X4217731Y2005705D01*
X4217731Y2005705D02*
X4293922Y2005705D01*
X4293922Y2005705D02*
X4408207Y2043800D01*
X4408207Y2043800D02*
X4446303Y2081896D01*
X4446303Y2081896D02*
X4446303Y2348562D01*
X4446303Y2348562D02*
X4293922Y2348562D01*
X4789160Y2005705D02*
X4789160Y2805705D01*
X4789160Y2805705D02*
X5246303Y2005705D01*
X5246303Y2005705D02*
X5246303Y2805705D01*
X5627255Y2005705D02*
X5627255Y2805705D01*
X5627255Y2805705D02*
X5817731Y2805705D01*
X5817731Y2805705D02*
X5932017Y2767610D01*
X5932017Y2767610D02*
X6008207Y2691420D01*
X6008207Y2691420D02*
X6046302Y2615229D01*
X6046302Y2615229D02*
X6084398Y2462848D01*
X6084398Y2462848D02*
X6084398Y2348562D01*
X6084398Y2348562D02*
X6046302Y2196181D01*
X6046302Y2196181D02*
X6008207Y2119991D01*
X6008207Y2119991D02*
X5932017Y2043800D01*
X5932017Y2043800D02*
X5817731Y2005705D01*
X5817731Y2005705D02*
X5627255Y2005705D01*
X11884398Y2917943D02*
X12398684Y2917943D01*
X12141541Y2017943D02*
X12141541Y2917943D01*
X12612969Y2917943D02*
X13212969Y2017943D01*
X13212969Y2917943D02*
X12612969Y2017943D01*
X1474874Y21005705D02*
X1741541Y20205705D01*
X1741541Y20205705D02*
X2008207Y21005705D01*
X2693921Y20205705D02*
X2236778Y20205705D01*
X2465350Y20205705D02*
X2465350Y21005705D01*
X2465350Y21005705D02*
X2389159Y20891420D01*
X2389159Y20891420D02*
X2312969Y20815229D01*
X2312969Y20815229D02*
X2236778Y20777134D01*
X3036779Y20281896D02*
X3074874Y20243800D01*
X3074874Y20243800D02*
X3036779Y20205705D01*
X3036779Y20205705D02*
X2998683Y20243800D01*
X2998683Y20243800D02*
X3036779Y20281896D01*
X3036779Y20281896D02*
X3036779Y20205705D01*
X3836778Y20205705D02*
X3379635Y20205705D01*
X3608207Y20205705D02*
X3608207Y21005705D01*
X3608207Y21005705D02*
X3532016Y20891420D01*
X3532016Y20891420D02*
X3455826Y20815229D01*
X3455826Y20815229D02*
X3379635Y20777134D01*
X7623810Y4313896D02*
X7585714Y4275800D01*
X7585714Y4275800D02*
X7471429Y4237705D01*
X7471429Y4237705D02*
X7395238Y4237705D01*
X7395238Y4237705D02*
X7280952Y4275800D01*
X7280952Y4275800D02*
X7204762Y4351991D01*
X7204762Y4351991D02*
X7166667Y4428181D01*
X7166667Y4428181D02*
X7128571Y4580562D01*
X7128571Y4580562D02*
X7128571Y4694848D01*
X7128571Y4694848D02*
X7166667Y4847229D01*
X7166667Y4847229D02*
X7204762Y4923420D01*
X7204762Y4923420D02*
X7280952Y4999610D01*
X7280952Y4999610D02*
X7395238Y5037705D01*
X7395238Y5037705D02*
X7471429Y5037705D01*
X7471429Y5037705D02*
X7585714Y4999610D01*
X7585714Y4999610D02*
X7623810Y4961515D01*
X8347619Y4237705D02*
X7966667Y4237705D01*
X7966667Y4237705D02*
X7966667Y5037705D01*
X8614286Y4237705D02*
X8614286Y5037705D01*
X9071429Y4237705D02*
X8728571Y4694848D01*
X9071429Y5037705D02*
X8614286Y4580562D01*
X2580953Y7737705D02*
X2580953Y8537705D01*
X2580953Y8537705D02*
X2771429Y8537705D01*
X2771429Y8537705D02*
X2885715Y8499610D01*
X2885715Y8499610D02*
X2961905Y8423420D01*
X2961905Y8423420D02*
X3000000Y8347229D01*
X3000000Y8347229D02*
X3038096Y8194848D01*
X3038096Y8194848D02*
X3038096Y8080562D01*
X3038096Y8080562D02*
X3000000Y7928181D01*
X3000000Y7928181D02*
X2961905Y7851991D01*
X2961905Y7851991D02*
X2885715Y7775800D01*
X2885715Y7775800D02*
X2771429Y7737705D01*
X2771429Y7737705D02*
X2580953Y7737705D01*
X3380953Y7737705D02*
X3380953Y8537705D01*
X3914286Y8537705D02*
X4066667Y8537705D01*
X4066667Y8537705D02*
X4142857Y8499610D01*
X4142857Y8499610D02*
X4219048Y8423420D01*
X4219048Y8423420D02*
X4257143Y8271039D01*
X4257143Y8271039D02*
X4257143Y8004372D01*
X4257143Y8004372D02*
X4219048Y7851991D01*
X4219048Y7851991D02*
X4142857Y7775800D01*
X4142857Y7775800D02*
X4066667Y7737705D01*
X4066667Y7737705D02*
X3914286Y7737705D01*
X3914286Y7737705D02*
X3838095Y7775800D01*
X3838095Y7775800D02*
X3761905Y7851991D01*
X3761905Y7851991D02*
X3723809Y8004372D01*
X3723809Y8004372D02*
X3723809Y8271039D01*
X3723809Y8271039D02*
X3761905Y8423420D01*
X3761905Y8423420D02*
X3838095Y8499610D01*
X3838095Y8499610D02*
X3914286Y8537705D01*
X9309523Y4061515D02*
X9347619Y4099610D01*
X9347619Y4099610D02*
X9423809Y4137705D01*
X9423809Y4137705D02*
X9614285Y4137705D01*
X9614285Y4137705D02*
X9690476Y4099610D01*
X9690476Y4099610D02*
X9728571Y4061515D01*
X9728571Y4061515D02*
X9766666Y3985324D01*
X9766666Y3985324D02*
X9766666Y3909134D01*
X9766666Y3909134D02*
X9728571Y3794848D01*
X9728571Y3794848D02*
X9271428Y3337705D01*
X9271428Y3337705D02*
X9766666Y3337705D01*
X10071428Y4061515D02*
X10109524Y4099610D01*
X10109524Y4099610D02*
X10185714Y4137705D01*
X10185714Y4137705D02*
X10376190Y4137705D01*
X10376190Y4137705D02*
X10452381Y4099610D01*
X10452381Y4099610D02*
X10490476Y4061515D01*
X10490476Y4061515D02*
X10528571Y3985324D01*
X10528571Y3985324D02*
X10528571Y3909134D01*
X10528571Y3909134D02*
X10490476Y3794848D01*
X10490476Y3794848D02*
X10033333Y3337705D01*
X10033333Y3337705D02*
X10528571Y3337705D01*
X11023810Y4137705D02*
X11100000Y4137705D01*
X11100000Y4137705D02*
X11176191Y4099610D01*
X11176191Y4099610D02*
X11214286Y4061515D01*
X11214286Y4061515D02*
X11252381Y3985324D01*
X11252381Y3985324D02*
X11290476Y3832943D01*
X11290476Y3832943D02*
X11290476Y3642467D01*
X11290476Y3642467D02*
X11252381Y3490086D01*
X11252381Y3490086D02*
X11214286Y3413896D01*
X11214286Y3413896D02*
X11176191Y3375800D01*
X11176191Y3375800D02*
X11100000Y3337705D01*
X11100000Y3337705D02*
X11023810Y3337705D01*
X11023810Y3337705D02*
X10947619Y3375800D01*
X10947619Y3375800D02*
X10909524Y3413896D01*
X10909524Y3413896D02*
X10871429Y3490086D01*
X10871429Y3490086D02*
X10833333Y3642467D01*
X10833333Y3642467D02*
X10833333Y3832943D01*
X10833333Y3832943D02*
X10871429Y3985324D01*
X10871429Y3985324D02*
X10909524Y4061515D01*
X10909524Y4061515D02*
X10947619Y4099610D01*
X10947619Y4099610D02*
X11023810Y4137705D01*
X12090476Y8171039D02*
X12090476Y7637705D01*
X11900000Y8475800D02*
X11709523Y7904372D01*
X11709523Y7904372D02*
X12204762Y7904372D01*
X12852381Y8171039D02*
X12852381Y7637705D01*
X12661905Y8475800D02*
X12471428Y7904372D01*
X12471428Y7904372D02*
X12966667Y7904372D01*
X13423810Y8437705D02*
X13500000Y8437705D01*
X13500000Y8437705D02*
X13576191Y8399610D01*
X13576191Y8399610D02*
X13614286Y8361515D01*
X13614286Y8361515D02*
X13652381Y8285324D01*
X13652381Y8285324D02*
X13690476Y8132943D01*
X13690476Y8132943D02*
X13690476Y7942467D01*
X13690476Y7942467D02*
X13652381Y7790086D01*
X13652381Y7790086D02*
X13614286Y7713896D01*
X13614286Y7713896D02*
X13576191Y7675800D01*
X13576191Y7675800D02*
X13500000Y7637705D01*
X13500000Y7637705D02*
X13423810Y7637705D01*
X13423810Y7637705D02*
X13347619Y7675800D01*
X13347619Y7675800D02*
X13309524Y7713896D01*
X13309524Y7713896D02*
X13271429Y7790086D01*
X13271429Y7790086D02*
X13233333Y7942467D01*
X13233333Y7942467D02*
X13233333Y8132943D01*
X13233333Y8132943D02*
X13271429Y8285324D01*
X13271429Y8285324D02*
X13309524Y8361515D01*
X13309524Y8361515D02*
X13347619Y8399610D01*
X13347619Y8399610D02*
X13423810Y8437705D01*
D12*
%TO.C,J1*%
X10340000Y-242929D02*
X10340000Y-640000D01*
X9580000Y-242929D02*
X9580000Y-640000D01*
X7800000Y-242929D02*
X7800000Y-640000D01*
X7040000Y-242929D02*
X7040000Y-640000D01*
X5260000Y-242929D02*
X5260000Y-640000D01*
X4500000Y-242929D02*
X4500000Y-640000D01*
X2720000Y-242929D02*
X2720000Y-640000D01*
X1960000Y-242929D02*
X1960000Y-640000D01*
X12880000Y-310000D02*
X12880000Y-640000D01*
X12120000Y-310000D02*
X12120000Y-640000D01*
X13830000Y-640000D02*
X1010000Y-640000D01*
X11230000Y-640000D02*
X11230000Y-3300000D01*
X8690000Y-640000D02*
X8690000Y-3300000D01*
X6150000Y-640000D02*
X6150000Y-3300000D01*
X3610000Y-640000D02*
X3610000Y-3300000D01*
X1010000Y-640000D02*
X1010000Y-3300000D01*
X13830000Y-3300000D02*
X13830000Y-640000D01*
X12880000Y-3300000D02*
X12880000Y-9300000D01*
X12820000Y-3300000D02*
X12820000Y-9300000D01*
X12700000Y-3300000D02*
X12700000Y-9300000D01*
X12580000Y-3300000D02*
X12580000Y-9300000D01*
X12460000Y-3300000D02*
X12460000Y-9300000D01*
X12340000Y-3300000D02*
X12340000Y-9300000D01*
X12220000Y-3300000D02*
X12220000Y-9300000D01*
X10340000Y-3300000D02*
X10340000Y-9300000D01*
X7800000Y-3300000D02*
X7800000Y-9300000D01*
X5260000Y-3300000D02*
X5260000Y-9300000D01*
X2720000Y-3300000D02*
X2720000Y-9300000D01*
X1010000Y-3300000D02*
X13830000Y-3300000D01*
X12880000Y-9300000D02*
X12120000Y-9300000D01*
X12120000Y-9300000D02*
X12120000Y-3300000D01*
X10340000Y-9300000D02*
X9580000Y-9300000D01*
X9580000Y-9300000D02*
X9580000Y-3300000D01*
X7800000Y-9300000D02*
X7040000Y-9300000D01*
X7040000Y-9300000D02*
X7040000Y-3300000D01*
X5260000Y-9300000D02*
X4500000Y-9300000D01*
X4500000Y-9300000D02*
X4500000Y-3300000D01*
X2720000Y-9300000D02*
X1960000Y-9300000D01*
X1960000Y-9300000D02*
X1960000Y-3300000D01*
%TO.C,C5*%
X5007836Y17540000D02*
X4792164Y17540000D01*
X5007836Y18260000D02*
X4792164Y18260000D01*
%TO.C,C7*%
X5707836Y19540000D02*
X5492164Y19540000D01*
X5707836Y20260000D02*
X5492164Y20260000D01*
%TO.C,C11*%
X11060000Y8107836D02*
X11060000Y7892164D01*
X10340000Y8107836D02*
X10340000Y7892164D01*
%TO.C,C13*%
X3260000Y6407836D02*
X3260000Y6192164D01*
X2540000Y6407836D02*
X2540000Y6192164D01*
%TO.C,C3*%
X9660000Y8107836D02*
X9660000Y7892164D01*
X8940000Y8107836D02*
X8940000Y7892164D01*
%TO.C,C12*%
X3107836Y17540000D02*
X2892164Y17540000D01*
X3107836Y18260000D02*
X2892164Y18260000D01*
%TO.C,U1*%
X12210000Y16910000D02*
X12210000Y16435000D01*
X11735000Y9690000D02*
X12210000Y9690000D01*
X11735000Y16910000D02*
X12210000Y16910000D01*
X5465000Y9690000D02*
X4990000Y9690000D01*
X5465000Y16910000D02*
X4990000Y16910000D01*
X4990000Y9690000D02*
X4990000Y10165000D01*
X4990000Y16910000D02*
X4990000Y16435000D01*
%TO.C,R3*%
X10020000Y19256359D02*
X10020000Y19563641D01*
X10780000Y19256359D02*
X10780000Y19563641D01*
%TO.C,C14*%
X2540000Y4292164D02*
X2540000Y4507836D01*
X3260000Y4292164D02*
X3260000Y4507836D01*
%TO.C,U2*%
X6660000Y5562500D02*
X6660000Y7237500D01*
X6660000Y5562500D02*
X6660000Y4912500D01*
X3540000Y5562500D02*
X3540000Y6212500D01*
X3540000Y5562500D02*
X3540000Y4912500D01*
%TO.C,TP2*%
X9300000Y6000000D02*
G75*
G02*
X7900000Y6000000I-700000J0D01*
G01*
X7900000Y6000000D02*
G75*
G02*
X9300000Y6000000I700000J0D01*
G01*
%TO.C,C6*%
X7640000Y19292164D02*
X7640000Y19507836D01*
X8360000Y19292164D02*
X8360000Y19507836D01*
%TO.C,C15*%
X6292164Y8760000D02*
X6507836Y8760000D01*
X6292164Y8040000D02*
X6507836Y8040000D01*
%TO.C,R4*%
X9680000Y19553641D02*
X9680000Y19246359D01*
X8920000Y19553641D02*
X8920000Y19246359D01*
%TO.C,C1*%
X12007836Y17540000D02*
X11792164Y17540000D01*
X12007836Y18260000D02*
X11792164Y18260000D01*
%TO.C,C10*%
X2907836Y12840000D02*
X2692164Y12840000D01*
X2907836Y13560000D02*
X2692164Y13560000D01*
%TO.C,C4*%
X3807836Y18540000D02*
X3592164Y18540000D01*
X3807836Y19260000D02*
X3592164Y19260000D01*
%TO.C,C2*%
X8210000Y8107836D02*
X8210000Y7892164D01*
X7490000Y8107836D02*
X7490000Y7892164D01*
%TO.C,R1*%
X11080000Y6053641D02*
X11080000Y5746359D01*
X10320000Y6053641D02*
X10320000Y5746359D01*
%TO.C,Y1*%
X1900000Y13950000D02*
X4200000Y13950000D01*
X4200000Y13950000D02*
X4200000Y16650000D01*
%TO.C,C9*%
X2907836Y11540000D02*
X2692164Y11540000D01*
X2907836Y12260000D02*
X2692164Y12260000D01*
%TO.C,TP1*%
X4000000Y9800000D02*
G75*
G02*
X2600000Y9800000I-700000J0D01*
G01*
X2600000Y9800000D02*
G75*
G02*
X4000000Y9800000I700000J0D01*
G01*
%TO.C,R2*%
X12080000Y6053641D02*
X12080000Y5746359D01*
X11320000Y6053641D02*
X11320000Y5746359D01*
D13*
%TO.C,SW1*%
X12900000Y20900000D02*
X12900000Y19500000D01*
X11500000Y20900000D02*
X11500000Y19500000D01*
X12647214Y20200000D02*
G75*
G02*
X11752786Y20200000I-447214J0D01*
G01*
X11752786Y20200000D02*
G75*
G02*
X12647214Y20200000I447214J0D01*
G01*
D12*
%TO.C,C8*%
X5407836Y22340000D02*
X5192164Y22340000D01*
X5407836Y23060000D02*
X5192164Y23060000D01*
%TO.C,D1*%
X8115000Y22035000D02*
X8115000Y20565000D01*
X8115000Y20565000D02*
X10400000Y20565000D01*
X10400000Y22035000D02*
X8115000Y22035000D01*
%TD*%
%LPC*%
D14*
%TO.C,J1*%
X12500000Y800000D03*
X9960000Y800000D03*
X7420000Y800000D03*
X4880000Y800000D03*
X2340000Y800000D03*
%TD*%
D15*
%TO.C,L3*%
X6100000Y20815000D03*
X6100000Y21785000D03*
%TD*%
D16*
%TO.C,C5*%
X5380000Y17900000D03*
X4420000Y17900000D03*
%TD*%
D17*
%TO.C,J2*%
X10000000Y24100000D03*
%TD*%
D16*
%TO.C,C7*%
X6080000Y19900000D03*
X5120000Y19900000D03*
%TD*%
D18*
%TO.C,C11*%
X10700000Y8480000D03*
X10700000Y7520000D03*
%TD*%
%TO.C,C13*%
X2900000Y6780000D03*
X2900000Y5820000D03*
%TD*%
%TO.C,C3*%
X9300000Y8480000D03*
X9300000Y7520000D03*
%TD*%
D16*
%TO.C,C12*%
X3480000Y17900000D03*
X2520000Y17900000D03*
%TD*%
D19*
%TO.C,U1*%
X12037500Y10550000D03*
X12037500Y11050000D03*
X12037500Y11550000D03*
X12037500Y12050000D03*
X12037500Y12550000D03*
X12037500Y13050000D03*
X12037500Y13550000D03*
X12037500Y14050000D03*
X12037500Y14550000D03*
X12037500Y15050000D03*
X12037500Y15550000D03*
X12037500Y16050000D03*
D20*
X11350000Y16737500D03*
X10850000Y16737500D03*
X10350000Y16737500D03*
X9850000Y16737500D03*
X9350000Y16737500D03*
X8850000Y16737500D03*
X8350000Y16737500D03*
X7850000Y16737500D03*
X7350000Y16737500D03*
X6850000Y16737500D03*
X6350000Y16737500D03*
X5850000Y16737500D03*
D19*
X5162500Y16050000D03*
X5162500Y15550000D03*
X5162500Y15050000D03*
X5162500Y14550000D03*
X5162500Y14050000D03*
X5162500Y13550000D03*
X5162500Y13050000D03*
X5162500Y12550000D03*
X5162500Y12050000D03*
X5162500Y11550000D03*
X5162500Y11050000D03*
X5162500Y10550000D03*
D20*
X5850000Y9862500D03*
X6350000Y9862500D03*
X6850000Y9862500D03*
X7350000Y9862500D03*
X7850000Y9862500D03*
X8350000Y9862500D03*
X8850000Y9862500D03*
X9350000Y9862500D03*
X9850000Y9862500D03*
X10350000Y9862500D03*
X10850000Y9862500D03*
X11350000Y9862500D03*
D21*
X8600000Y13300000D03*
%TD*%
D22*
%TO.C,R3*%
X10400000Y18900000D03*
X10400000Y19920000D03*
%TD*%
D23*
%TO.C,H2*%
X13000000Y3800000D03*
%TD*%
D24*
%TO.C,C14*%
X2900000Y3920000D03*
X2900000Y4880000D03*
%TD*%
D25*
%TO.C,U2*%
X6050000Y6500000D03*
X4150000Y6500000D03*
X5100000Y4625000D03*
%TD*%
D26*
%TO.C,TP2*%
X8600000Y6000000D03*
%TD*%
D24*
%TO.C,C6*%
X8000000Y18920000D03*
X8000000Y19880000D03*
%TD*%
D27*
%TO.C,C15*%
X5920000Y8400000D03*
X6880000Y8400000D03*
%TD*%
D28*
%TO.C,R4*%
X9300000Y19910000D03*
X9300000Y18890000D03*
%TD*%
D16*
%TO.C,C1*%
X12380000Y17900000D03*
X11420000Y17900000D03*
%TD*%
%TO.C,C10*%
X3280000Y13200000D03*
X2320000Y13200000D03*
%TD*%
%TO.C,C4*%
X4180000Y18900000D03*
X3220000Y18900000D03*
%TD*%
D18*
%TO.C,C2*%
X7850000Y8480000D03*
X7850000Y7520000D03*
%TD*%
D28*
%TO.C,R1*%
X10700000Y6410000D03*
X10700000Y5390000D03*
%TD*%
D29*
%TO.C,Y1*%
X3600000Y14600000D03*
X3600000Y16000000D03*
X2500000Y16000000D03*
X2500000Y14600000D03*
%TD*%
D16*
%TO.C,C9*%
X3280000Y11900000D03*
X2320000Y11900000D03*
%TD*%
D26*
%TO.C,TP1*%
X3300000Y9800000D03*
%TD*%
D28*
%TO.C,R2*%
X11700000Y6410000D03*
X11700000Y5390000D03*
%TD*%
D23*
%TO.C,H1*%
X2500000Y24600000D03*
%TD*%
D30*
%TO.C,SW1*%
X12600000Y21525000D03*
X11800000Y21525000D03*
X12600000Y18875000D03*
X11800000Y18875000D03*
%TD*%
D31*
%TO.C,L1*%
X5115000Y18900000D03*
X6085000Y18900000D03*
%TD*%
D16*
%TO.C,C8*%
X5780000Y22700000D03*
X4820000Y22700000D03*
%TD*%
D15*
%TO.C,L2*%
X7000000Y18915000D03*
X7000000Y19885000D03*
%TD*%
D32*
%TO.C,D1*%
X8812500Y21300000D03*
X10387500Y21300000D03*
%TD*%
D17*
%TO.C,AE1*%
X7400000Y24100000D03*
%TD*%
%LPD*%
M02*
