%TF.GenerationSoftware,KiCad,Pcbnew,7.0.6*%
%TF.CreationDate,2023-07-24T21:53:20+02:00*%
%TF.ProjectId,beacon,62656163-6f6e-42e6-9b69-6361645f7063,rev?*%
%TF.SameCoordinates,Original*%
%TF.FileFunction,Legend,Top*%
%TF.FilePolarity,Positive*%
%FSLAX46Y46*%
G04 Gerber Fmt 4.6, Leading zero omitted, Abs format (unit mm)*
G04 Created by KiCad (PCBNEW 7.0.6) date 2023-07-24 21:53:20*
%MOMM*%
%LPD*%
G01*
G04 APERTURE LIST*
G04 Aperture macros list*
%AMRoundRect*
0 Rectangle with rounded corners*
0 $1 Rounding radius*
0 $2 $3 $4 $5 $6 $7 $8 $9 X,Y pos of 4 corners*
0 Add a 4 corners polygon primitive as box body*
4,1,4,$2,$3,$4,$5,$6,$7,$8,$9,$2,$3,0*
0 Add four circle primitives for the rounded corners*
1,1,$1+$1,$2,$3*
1,1,$1+$1,$4,$5*
1,1,$1+$1,$6,$7*
1,1,$1+$1,$8,$9*
0 Add four rect primitives between the rounded corners*
20,1,$1+$1,$2,$3,$4,$5,0*
20,1,$1+$1,$4,$5,$6,$7,0*
20,1,$1+$1,$6,$7,$8,$9,0*
20,1,$1+$1,$8,$9,$2,$3,0*%
G04 Aperture macros list end*
%ADD10C,0.150000*%
%ADD11C,0.120000*%
%ADD12C,0.100000*%
%ADD13RoundRect,0.147500X0.172500X-0.147500X0.172500X0.147500X-0.172500X0.147500X-0.172500X-0.147500X0*%
%ADD14RoundRect,0.140000X0.140000X0.170000X-0.140000X0.170000X-0.140000X-0.170000X0.140000X-0.170000X0*%
%ADD15RoundRect,0.500000X-0.500000X-1.250000X0.500000X-1.250000X0.500000X1.250000X-0.500000X1.250000X0*%
%ADD16RoundRect,0.140000X-0.170000X0.140000X-0.170000X-0.140000X0.170000X-0.140000X0.170000X0.140000X0*%
%ADD17RoundRect,0.062500X0.375000X0.062500X-0.375000X0.062500X-0.375000X-0.062500X0.375000X-0.062500X0*%
%ADD18RoundRect,0.062500X0.062500X0.375000X-0.062500X0.375000X-0.062500X-0.375000X0.062500X-0.375000X0*%
%ADD19R,5.600000X5.600000*%
%ADD20RoundRect,0.135000X0.185000X-0.135000X0.185000X0.135000X-0.185000X0.135000X-0.185000X-0.135000X0*%
%ADD21C,1.300000*%
%ADD22RoundRect,0.140000X0.170000X-0.140000X0.170000X0.140000X-0.170000X0.140000X-0.170000X-0.140000X0*%
%ADD23RoundRect,0.150000X-0.150000X0.587500X-0.150000X-0.587500X0.150000X-0.587500X0.150000X0.587500X0*%
%ADD24C,1.000000*%
%ADD25RoundRect,0.140000X-0.140000X-0.170000X0.140000X-0.170000X0.140000X0.170000X-0.140000X0.170000X0*%
%ADD26RoundRect,0.135000X-0.185000X0.135000X-0.185000X-0.135000X0.185000X-0.135000X0.185000X0.135000X0*%
%ADD27R,0.800000X0.900000*%
%ADD28C,1.700000*%
%ADD29O,1.700000X1.700000*%
%ADD30RoundRect,0.125000X-0.125000X0.150000X-0.125000X-0.150000X0.125000X-0.150000X0.125000X0.150000X0*%
%ADD31RoundRect,0.147500X-0.147500X-0.172500X0.147500X-0.172500X0.147500X0.172500X-0.147500X0.172500X0*%
%ADD32RoundRect,0.218750X-0.218750X-0.256250X0.218750X-0.256250X0.218750X0.256250X-0.218750X0.256250X0*%
G04 APERTURE END LIST*
D10*
X1655826Y21824753D02*
X1770112Y21786658D01*
X1770112Y21786658D02*
X1808207Y21748562D01*
X1808207Y21748562D02*
X1846303Y21672372D01*
X1846303Y21672372D02*
X1846303Y21558086D01*
X1846303Y21558086D02*
X1808207Y21481896D01*
X1808207Y21481896D02*
X1770112Y21443800D01*
X1770112Y21443800D02*
X1693922Y21405705D01*
X1693922Y21405705D02*
X1389160Y21405705D01*
X1389160Y21405705D02*
X1389160Y22205705D01*
X1389160Y22205705D02*
X1655826Y22205705D01*
X1655826Y22205705D02*
X1732017Y22167610D01*
X1732017Y22167610D02*
X1770112Y22129515D01*
X1770112Y22129515D02*
X1808207Y22053324D01*
X1808207Y22053324D02*
X1808207Y21977134D01*
X1808207Y21977134D02*
X1770112Y21900943D01*
X1770112Y21900943D02*
X1732017Y21862848D01*
X1732017Y21862848D02*
X1655826Y21824753D01*
X1655826Y21824753D02*
X1389160Y21824753D01*
X2493922Y21443800D02*
X2417731Y21405705D01*
X2417731Y21405705D02*
X2265350Y21405705D01*
X2265350Y21405705D02*
X2189160Y21443800D01*
X2189160Y21443800D02*
X2151064Y21519991D01*
X2151064Y21519991D02*
X2151064Y21824753D01*
X2151064Y21824753D02*
X2189160Y21900943D01*
X2189160Y21900943D02*
X2265350Y21939039D01*
X2265350Y21939039D02*
X2417731Y21939039D01*
X2417731Y21939039D02*
X2493922Y21900943D01*
X2493922Y21900943D02*
X2532017Y21824753D01*
X2532017Y21824753D02*
X2532017Y21748562D01*
X2532017Y21748562D02*
X2151064Y21672372D01*
X3217731Y21405705D02*
X3217731Y21824753D01*
X3217731Y21824753D02*
X3179636Y21900943D01*
X3179636Y21900943D02*
X3103445Y21939039D01*
X3103445Y21939039D02*
X2951064Y21939039D01*
X2951064Y21939039D02*
X2874874Y21900943D01*
X3217731Y21443800D02*
X3141540Y21405705D01*
X3141540Y21405705D02*
X2951064Y21405705D01*
X2951064Y21405705D02*
X2874874Y21443800D01*
X2874874Y21443800D02*
X2836778Y21519991D01*
X2836778Y21519991D02*
X2836778Y21596181D01*
X2836778Y21596181D02*
X2874874Y21672372D01*
X2874874Y21672372D02*
X2951064Y21710467D01*
X2951064Y21710467D02*
X3141540Y21710467D01*
X3141540Y21710467D02*
X3217731Y21748562D01*
X3941541Y21443800D02*
X3865350Y21405705D01*
X3865350Y21405705D02*
X3712969Y21405705D01*
X3712969Y21405705D02*
X3636779Y21443800D01*
X3636779Y21443800D02*
X3598684Y21481896D01*
X3598684Y21481896D02*
X3560588Y21558086D01*
X3560588Y21558086D02*
X3560588Y21786658D01*
X3560588Y21786658D02*
X3598684Y21862848D01*
X3598684Y21862848D02*
X3636779Y21900943D01*
X3636779Y21900943D02*
X3712969Y21939039D01*
X3712969Y21939039D02*
X3865350Y21939039D01*
X3865350Y21939039D02*
X3941541Y21900943D01*
X4398683Y21405705D02*
X4322493Y21443800D01*
X4322493Y21443800D02*
X4284398Y21481896D01*
X4284398Y21481896D02*
X4246302Y21558086D01*
X4246302Y21558086D02*
X4246302Y21786658D01*
X4246302Y21786658D02*
X4284398Y21862848D01*
X4284398Y21862848D02*
X4322493Y21900943D01*
X4322493Y21900943D02*
X4398683Y21939039D01*
X4398683Y21939039D02*
X4512969Y21939039D01*
X4512969Y21939039D02*
X4589160Y21900943D01*
X4589160Y21900943D02*
X4627255Y21862848D01*
X4627255Y21862848D02*
X4665350Y21786658D01*
X4665350Y21786658D02*
X4665350Y21558086D01*
X4665350Y21558086D02*
X4627255Y21481896D01*
X4627255Y21481896D02*
X4589160Y21443800D01*
X4589160Y21443800D02*
X4512969Y21405705D01*
X4512969Y21405705D02*
X4398683Y21405705D01*
X5008208Y21939039D02*
X5008208Y21405705D01*
X5008208Y21862848D02*
X5046303Y21900943D01*
X5046303Y21900943D02*
X5122493Y21939039D01*
X5122493Y21939039D02*
X5236779Y21939039D01*
X5236779Y21939039D02*
X5312970Y21900943D01*
X5312970Y21900943D02*
X5351065Y21824753D01*
X5351065Y21824753D02*
X5351065Y21405705D01*
X10700000Y4650000D02*
X10300000Y4350000D01*
X12700000Y6400000D02*
X12700000Y7400000D01*
X12300000Y6000000D02*
X12700000Y6400000D01*
X10700000Y4900000D02*
X10700000Y4650000D01*
X1808207Y2767610D02*
X1732017Y2805705D01*
X1732017Y2805705D02*
X1617731Y2805705D01*
X1617731Y2805705D02*
X1503445Y2767610D01*
X1503445Y2767610D02*
X1427255Y2691420D01*
X1427255Y2691420D02*
X1389160Y2615229D01*
X1389160Y2615229D02*
X1351064Y2462848D01*
X1351064Y2462848D02*
X1351064Y2348562D01*
X1351064Y2348562D02*
X1389160Y2196181D01*
X1389160Y2196181D02*
X1427255Y2119991D01*
X1427255Y2119991D02*
X1503445Y2043800D01*
X1503445Y2043800D02*
X1617731Y2005705D01*
X1617731Y2005705D02*
X1693922Y2005705D01*
X1693922Y2005705D02*
X1808207Y2043800D01*
X1808207Y2043800D02*
X1846303Y2081896D01*
X1846303Y2081896D02*
X1846303Y2348562D01*
X1846303Y2348562D02*
X1693922Y2348562D01*
X2189160Y2005705D02*
X2189160Y2805705D01*
X2189160Y2805705D02*
X2646303Y2005705D01*
X2646303Y2005705D02*
X2646303Y2805705D01*
X3027255Y2005705D02*
X3027255Y2805705D01*
X3027255Y2805705D02*
X3217731Y2805705D01*
X3217731Y2805705D02*
X3332017Y2767610D01*
X3332017Y2767610D02*
X3408207Y2691420D01*
X3408207Y2691420D02*
X3446302Y2615229D01*
X3446302Y2615229D02*
X3484398Y2462848D01*
X3484398Y2462848D02*
X3484398Y2348562D01*
X3484398Y2348562D02*
X3446302Y2196181D01*
X3446302Y2196181D02*
X3408207Y2119991D01*
X3408207Y2119991D02*
X3332017Y2043800D01*
X3332017Y2043800D02*
X3217731Y2005705D01*
X3217731Y2005705D02*
X3027255Y2005705D01*
X11884398Y24675086D02*
X11798684Y24717943D01*
X11798684Y24717943D02*
X11670112Y24717943D01*
X11670112Y24717943D02*
X11541541Y24675086D01*
X11541541Y24675086D02*
X11455826Y24589372D01*
X11455826Y24589372D02*
X11412969Y24503658D01*
X11412969Y24503658D02*
X11370112Y24332229D01*
X11370112Y24332229D02*
X11370112Y24203658D01*
X11370112Y24203658D02*
X11412969Y24032229D01*
X11412969Y24032229D02*
X11455826Y23946515D01*
X11455826Y23946515D02*
X11541541Y23860800D01*
X11541541Y23860800D02*
X11670112Y23817943D01*
X11670112Y23817943D02*
X11755826Y23817943D01*
X11755826Y23817943D02*
X11884398Y23860800D01*
X11884398Y23860800D02*
X11927255Y23903658D01*
X11927255Y23903658D02*
X11927255Y24203658D01*
X11927255Y24203658D02*
X11755826Y24203658D01*
X12312969Y23817943D02*
X12312969Y24717943D01*
X12312969Y24717943D02*
X12827255Y23817943D01*
X12827255Y23817943D02*
X12827255Y24717943D01*
X13255826Y23817943D02*
X13255826Y24717943D01*
X13255826Y24717943D02*
X13470112Y24717943D01*
X13470112Y24717943D02*
X13598683Y24675086D01*
X13598683Y24675086D02*
X13684398Y24589372D01*
X13684398Y24589372D02*
X13727255Y24503658D01*
X13727255Y24503658D02*
X13770112Y24332229D01*
X13770112Y24332229D02*
X13770112Y24203658D01*
X13770112Y24203658D02*
X13727255Y24032229D01*
X13727255Y24032229D02*
X13684398Y23946515D01*
X13684398Y23946515D02*
X13598683Y23860800D01*
X13598683Y23860800D02*
X13470112Y23817943D01*
X13470112Y23817943D02*
X13255826Y23817943D01*
X6674874Y2805705D02*
X6941541Y2005705D01*
X6941541Y2005705D02*
X7208207Y2805705D01*
X7474874Y2310467D02*
X8084398Y2310467D01*
X7779636Y2005705D02*
X7779636Y2615229D01*
X3670112Y24175086D02*
X4098684Y24175086D01*
X3584398Y23917943D02*
X3884398Y24817943D01*
X3884398Y24817943D02*
X4184398Y23917943D01*
X4484398Y23917943D02*
X4484398Y24817943D01*
X4484398Y24817943D02*
X4998684Y23917943D01*
X4998684Y23917943D02*
X4998684Y24817943D01*
X5298684Y24817943D02*
X5812970Y24817943D01*
X5555827Y23917943D02*
X5555827Y24817943D01*
X9827255Y2005705D02*
X9527255Y2386658D01*
X9312969Y2005705D02*
X9312969Y2805705D01*
X9312969Y2805705D02*
X9655826Y2805705D01*
X9655826Y2805705D02*
X9741541Y2767610D01*
X9741541Y2767610D02*
X9784398Y2729515D01*
X9784398Y2729515D02*
X9827255Y2653324D01*
X9827255Y2653324D02*
X9827255Y2539039D01*
X9827255Y2539039D02*
X9784398Y2462848D01*
X9784398Y2462848D02*
X9741541Y2424753D01*
X9741541Y2424753D02*
X9655826Y2386658D01*
X9655826Y2386658D02*
X9312969Y2386658D01*
X10127255Y2805705D02*
X10727255Y2005705D01*
X10727255Y2805705D02*
X10127255Y2005705D01*
X4408207Y2767610D02*
X4332017Y2805705D01*
X4332017Y2805705D02*
X4217731Y2805705D01*
X4217731Y2805705D02*
X4103445Y2767610D01*
X4103445Y2767610D02*
X4027255Y2691420D01*
X4027255Y2691420D02*
X3989160Y2615229D01*
X3989160Y2615229D02*
X3951064Y2462848D01*
X3951064Y2462848D02*
X3951064Y2348562D01*
X3951064Y2348562D02*
X3989160Y2196181D01*
X3989160Y2196181D02*
X4027255Y2119991D01*
X4027255Y2119991D02*
X4103445Y2043800D01*
X4103445Y2043800D02*
X4217731Y2005705D01*
X4217731Y2005705D02*
X4293922Y2005705D01*
X4293922Y2005705D02*
X4408207Y2043800D01*
X4408207Y2043800D02*
X4446303Y2081896D01*
X4446303Y2081896D02*
X4446303Y2348562D01*
X4446303Y2348562D02*
X4293922Y2348562D01*
X4789160Y2005705D02*
X4789160Y2805705D01*
X4789160Y2805705D02*
X5246303Y2005705D01*
X5246303Y2005705D02*
X5246303Y2805705D01*
X5627255Y2005705D02*
X5627255Y2805705D01*
X5627255Y2805705D02*
X5817731Y2805705D01*
X5817731Y2805705D02*
X5932017Y2767610D01*
X5932017Y2767610D02*
X6008207Y2691420D01*
X6008207Y2691420D02*
X6046302Y2615229D01*
X6046302Y2615229D02*
X6084398Y2462848D01*
X6084398Y2462848D02*
X6084398Y2348562D01*
X6084398Y2348562D02*
X6046302Y2196181D01*
X6046302Y2196181D02*
X6008207Y2119991D01*
X6008207Y2119991D02*
X5932017Y2043800D01*
X5932017Y2043800D02*
X5817731Y2005705D01*
X5817731Y2005705D02*
X5627255Y2005705D01*
X11884398Y2917943D02*
X12398684Y2917943D01*
X12141541Y2017943D02*
X12141541Y2917943D01*
X12612969Y2917943D02*
X13212969Y2017943D01*
X13212969Y2917943D02*
X12612969Y2017943D01*
X1774874Y20905705D02*
X2041541Y20105705D01*
X2041541Y20105705D02*
X2308207Y20905705D01*
X2993921Y20105705D02*
X2536778Y20105705D01*
X2765350Y20105705D02*
X2765350Y20905705D01*
X2765350Y20905705D02*
X2689159Y20791420D01*
X2689159Y20791420D02*
X2612969Y20715229D01*
X2612969Y20715229D02*
X2536778Y20677134D01*
X3336779Y20181896D02*
X3374874Y20143800D01*
X3374874Y20143800D02*
X3336779Y20105705D01*
X3336779Y20105705D02*
X3298683Y20143800D01*
X3298683Y20143800D02*
X3336779Y20181896D01*
X3336779Y20181896D02*
X3336779Y20105705D01*
X3870112Y20905705D02*
X3946302Y20905705D01*
X3946302Y20905705D02*
X4022493Y20867610D01*
X4022493Y20867610D02*
X4060588Y20829515D01*
X4060588Y20829515D02*
X4098683Y20753324D01*
X4098683Y20753324D02*
X4136778Y20600943D01*
X4136778Y20600943D02*
X4136778Y20410467D01*
X4136778Y20410467D02*
X4098683Y20258086D01*
X4098683Y20258086D02*
X4060588Y20181896D01*
X4060588Y20181896D02*
X4022493Y20143800D01*
X4022493Y20143800D02*
X3946302Y20105705D01*
X3946302Y20105705D02*
X3870112Y20105705D01*
X3870112Y20105705D02*
X3793921Y20143800D01*
X3793921Y20143800D02*
X3755826Y20181896D01*
X3755826Y20181896D02*
X3717731Y20258086D01*
X3717731Y20258086D02*
X3679635Y20410467D01*
X3679635Y20410467D02*
X3679635Y20600943D01*
X3679635Y20600943D02*
X3717731Y20753324D01*
X3717731Y20753324D02*
X3755826Y20829515D01*
X3755826Y20829515D02*
X3793921Y20867610D01*
X3793921Y20867610D02*
X3870112Y20905705D01*
X7623810Y4313896D02*
X7585714Y4275800D01*
X7585714Y4275800D02*
X7471429Y4237705D01*
X7471429Y4237705D02*
X7395238Y4237705D01*
X7395238Y4237705D02*
X7280952Y4275800D01*
X7280952Y4275800D02*
X7204762Y4351991D01*
X7204762Y4351991D02*
X7166667Y4428181D01*
X7166667Y4428181D02*
X7128571Y4580562D01*
X7128571Y4580562D02*
X7128571Y4694848D01*
X7128571Y4694848D02*
X7166667Y4847229D01*
X7166667Y4847229D02*
X7204762Y4923420D01*
X7204762Y4923420D02*
X7280952Y4999610D01*
X7280952Y4999610D02*
X7395238Y5037705D01*
X7395238Y5037705D02*
X7471429Y5037705D01*
X7471429Y5037705D02*
X7585714Y4999610D01*
X7585714Y4999610D02*
X7623810Y4961515D01*
X8347619Y4237705D02*
X7966667Y4237705D01*
X7966667Y4237705D02*
X7966667Y5037705D01*
X8614286Y4237705D02*
X8614286Y5037705D01*
X9071429Y4237705D02*
X8728571Y4694848D01*
X9071429Y5037705D02*
X8614286Y4580562D01*
X2580953Y7737705D02*
X2580953Y8537705D01*
X2580953Y8537705D02*
X2771429Y8537705D01*
X2771429Y8537705D02*
X2885715Y8499610D01*
X2885715Y8499610D02*
X2961905Y8423420D01*
X2961905Y8423420D02*
X3000000Y8347229D01*
X3000000Y8347229D02*
X3038096Y8194848D01*
X3038096Y8194848D02*
X3038096Y8080562D01*
X3038096Y8080562D02*
X3000000Y7928181D01*
X3000000Y7928181D02*
X2961905Y7851991D01*
X2961905Y7851991D02*
X2885715Y7775800D01*
X2885715Y7775800D02*
X2771429Y7737705D01*
X2771429Y7737705D02*
X2580953Y7737705D01*
X3380953Y7737705D02*
X3380953Y8537705D01*
X3914286Y8537705D02*
X4066667Y8537705D01*
X4066667Y8537705D02*
X4142857Y8499610D01*
X4142857Y8499610D02*
X4219048Y8423420D01*
X4219048Y8423420D02*
X4257143Y8271039D01*
X4257143Y8271039D02*
X4257143Y8004372D01*
X4257143Y8004372D02*
X4219048Y7851991D01*
X4219048Y7851991D02*
X4142857Y7775800D01*
X4142857Y7775800D02*
X4066667Y7737705D01*
X4066667Y7737705D02*
X3914286Y7737705D01*
X3914286Y7737705D02*
X3838095Y7775800D01*
X3838095Y7775800D02*
X3761905Y7851991D01*
X3761905Y7851991D02*
X3723809Y8004372D01*
X3723809Y8004372D02*
X3723809Y8271039D01*
X3723809Y8271039D02*
X3761905Y8423420D01*
X3761905Y8423420D02*
X3838095Y8499610D01*
X3838095Y8499610D02*
X3914286Y8537705D01*
X9309523Y4061515D02*
X9347619Y4099610D01*
X9347619Y4099610D02*
X9423809Y4137705D01*
X9423809Y4137705D02*
X9614285Y4137705D01*
X9614285Y4137705D02*
X9690476Y4099610D01*
X9690476Y4099610D02*
X9728571Y4061515D01*
X9728571Y4061515D02*
X9766666Y3985324D01*
X9766666Y3985324D02*
X9766666Y3909134D01*
X9766666Y3909134D02*
X9728571Y3794848D01*
X9728571Y3794848D02*
X9271428Y3337705D01*
X9271428Y3337705D02*
X9766666Y3337705D01*
X10071428Y4061515D02*
X10109524Y4099610D01*
X10109524Y4099610D02*
X10185714Y4137705D01*
X10185714Y4137705D02*
X10376190Y4137705D01*
X10376190Y4137705D02*
X10452381Y4099610D01*
X10452381Y4099610D02*
X10490476Y4061515D01*
X10490476Y4061515D02*
X10528571Y3985324D01*
X10528571Y3985324D02*
X10528571Y3909134D01*
X10528571Y3909134D02*
X10490476Y3794848D01*
X10490476Y3794848D02*
X10033333Y3337705D01*
X10033333Y3337705D02*
X10528571Y3337705D01*
X11023810Y4137705D02*
X11100000Y4137705D01*
X11100000Y4137705D02*
X11176191Y4099610D01*
X11176191Y4099610D02*
X11214286Y4061515D01*
X11214286Y4061515D02*
X11252381Y3985324D01*
X11252381Y3985324D02*
X11290476Y3832943D01*
X11290476Y3832943D02*
X11290476Y3642467D01*
X11290476Y3642467D02*
X11252381Y3490086D01*
X11252381Y3490086D02*
X11214286Y3413896D01*
X11214286Y3413896D02*
X11176191Y3375800D01*
X11176191Y3375800D02*
X11100000Y3337705D01*
X11100000Y3337705D02*
X11023810Y3337705D01*
X11023810Y3337705D02*
X10947619Y3375800D01*
X10947619Y3375800D02*
X10909524Y3413896D01*
X10909524Y3413896D02*
X10871429Y3490086D01*
X10871429Y3490086D02*
X10833333Y3642467D01*
X10833333Y3642467D02*
X10833333Y3832943D01*
X10833333Y3832943D02*
X10871429Y3985324D01*
X10871429Y3985324D02*
X10909524Y4061515D01*
X10909524Y4061515D02*
X10947619Y4099610D01*
X10947619Y4099610D02*
X11023810Y4137705D01*
X12090476Y8171039D02*
X12090476Y7637705D01*
X11900000Y8475800D02*
X11709523Y7904372D01*
X11709523Y7904372D02*
X12204762Y7904372D01*
X12852381Y8171039D02*
X12852381Y7637705D01*
X12661905Y8475800D02*
X12471428Y7904372D01*
X12471428Y7904372D02*
X12966667Y7904372D01*
X13423810Y8437705D02*
X13500000Y8437705D01*
X13500000Y8437705D02*
X13576191Y8399610D01*
X13576191Y8399610D02*
X13614286Y8361515D01*
X13614286Y8361515D02*
X13652381Y8285324D01*
X13652381Y8285324D02*
X13690476Y8132943D01*
X13690476Y8132943D02*
X13690476Y7942467D01*
X13690476Y7942467D02*
X13652381Y7790086D01*
X13652381Y7790086D02*
X13614286Y7713896D01*
X13614286Y7713896D02*
X13576191Y7675800D01*
X13576191Y7675800D02*
X13500000Y7637705D01*
X13500000Y7637705D02*
X13423810Y7637705D01*
X13423810Y7637705D02*
X13347619Y7675800D01*
X13347619Y7675800D02*
X13309524Y7713896D01*
X13309524Y7713896D02*
X13271429Y7790086D01*
X13271429Y7790086D02*
X13233333Y7942467D01*
X13233333Y7942467D02*
X13233333Y8132943D01*
X13233333Y8132943D02*
X13271429Y8285324D01*
X13271429Y8285324D02*
X13309524Y8361515D01*
X13309524Y8361515D02*
X13347619Y8399610D01*
X13347619Y8399610D02*
X13423810Y8437705D01*
D11*
%TO.C,C5*%
X5007836Y17540000D02*
X4792164Y17540000D01*
X5007836Y18260000D02*
X4792164Y18260000D01*
%TO.C,C7*%
X5707836Y19540000D02*
X5492164Y19540000D01*
X5707836Y20260000D02*
X5492164Y20260000D01*
%TO.C,C11*%
X11060000Y8107836D02*
X11060000Y7892164D01*
X10340000Y8107836D02*
X10340000Y7892164D01*
%TO.C,C13*%
X3260000Y6407836D02*
X3260000Y6192164D01*
X2540000Y6407836D02*
X2540000Y6192164D01*
%TO.C,C3*%
X9660000Y8107836D02*
X9660000Y7892164D01*
X8940000Y8107836D02*
X8940000Y7892164D01*
%TO.C,C12*%
X3107836Y17540000D02*
X2892164Y17540000D01*
X3107836Y18260000D02*
X2892164Y18260000D01*
%TO.C,U1*%
X12210000Y16910000D02*
X12210000Y16435000D01*
X11735000Y9690000D02*
X12210000Y9690000D01*
X11735000Y16910000D02*
X12210000Y16910000D01*
X5465000Y9690000D02*
X4990000Y9690000D01*
X5465000Y16910000D02*
X4990000Y16910000D01*
X4990000Y9690000D02*
X4990000Y10165000D01*
X4990000Y16910000D02*
X4990000Y16435000D01*
%TO.C,R3*%
X10020000Y19256359D02*
X10020000Y19563641D01*
X10780000Y19256359D02*
X10780000Y19563641D01*
%TO.C,C14*%
X2540000Y4292164D02*
X2540000Y4507836D01*
X3260000Y4292164D02*
X3260000Y4507836D01*
%TO.C,U2*%
X6660000Y5562500D02*
X6660000Y7237500D01*
X6660000Y5562500D02*
X6660000Y4912500D01*
X3540000Y5562500D02*
X3540000Y6212500D01*
X3540000Y5562500D02*
X3540000Y4912500D01*
%TO.C,TP2*%
X9300000Y6000000D02*
G75*
G03*
X9300000Y6000000I-700000J0D01*
G01*
%TO.C,C6*%
X7640000Y19292164D02*
X7640000Y19507836D01*
X8360000Y19292164D02*
X8360000Y19507836D01*
%TO.C,C15*%
X6292164Y8760000D02*
X6507836Y8760000D01*
X6292164Y8040000D02*
X6507836Y8040000D01*
%TO.C,R4*%
X9680000Y19553641D02*
X9680000Y19246359D01*
X8920000Y19553641D02*
X8920000Y19246359D01*
%TO.C,C1*%
X12007836Y17540000D02*
X11792164Y17540000D01*
X12007836Y18260000D02*
X11792164Y18260000D01*
%TO.C,C10*%
X2907836Y12840000D02*
X2692164Y12840000D01*
X2907836Y13560000D02*
X2692164Y13560000D01*
%TO.C,C4*%
X3807836Y18540000D02*
X3592164Y18540000D01*
X3807836Y19260000D02*
X3592164Y19260000D01*
%TO.C,C2*%
X8210000Y8107836D02*
X8210000Y7892164D01*
X7490000Y8107836D02*
X7490000Y7892164D01*
%TO.C,R1*%
X11080000Y6053641D02*
X11080000Y5746359D01*
X10320000Y6053641D02*
X10320000Y5746359D01*
%TO.C,Y1*%
X1900000Y13950000D02*
X4200000Y13950000D01*
X4200000Y13950000D02*
X4200000Y16650000D01*
%TO.C,C9*%
X2907836Y11540000D02*
X2692164Y11540000D01*
X2907836Y12260000D02*
X2692164Y12260000D01*
%TO.C,J1*%
X10340000Y-167929D02*
X10340000Y-565000D01*
X9580000Y-167929D02*
X9580000Y-565000D01*
X7800000Y-167929D02*
X7800000Y-565000D01*
X7040000Y-167929D02*
X7040000Y-565000D01*
X5260000Y-167929D02*
X5260000Y-565000D01*
X4500000Y-167929D02*
X4500000Y-565000D01*
X2720000Y-167929D02*
X2720000Y-565000D01*
X1960000Y-167929D02*
X1960000Y-565000D01*
X12880000Y-235000D02*
X12880000Y-565000D01*
X12120000Y-235000D02*
X12120000Y-565000D01*
X13830000Y-565000D02*
X1010000Y-565000D01*
X11230000Y-565000D02*
X11230000Y-3225000D01*
X8690000Y-565000D02*
X8690000Y-3225000D01*
X6150000Y-565000D02*
X6150000Y-3225000D01*
X3610000Y-565000D02*
X3610000Y-3225000D01*
X1010000Y-565000D02*
X1010000Y-3225000D01*
X13830000Y-3225000D02*
X13830000Y-565000D01*
X12880000Y-3225000D02*
X12880000Y-9225000D01*
X12820000Y-3225000D02*
X12820000Y-9225000D01*
X12700000Y-3225000D02*
X12700000Y-9225000D01*
X12580000Y-3225000D02*
X12580000Y-9225000D01*
X12460000Y-3225000D02*
X12460000Y-9225000D01*
X12340000Y-3225000D02*
X12340000Y-9225000D01*
X12220000Y-3225000D02*
X12220000Y-9225000D01*
X10340000Y-3225000D02*
X10340000Y-9225000D01*
X7800000Y-3225000D02*
X7800000Y-9225000D01*
X5260000Y-3225000D02*
X5260000Y-9225000D01*
X2720000Y-3225000D02*
X2720000Y-9225000D01*
X1010000Y-3225000D02*
X13830000Y-3225000D01*
X12880000Y-9225000D02*
X12120000Y-9225000D01*
X12120000Y-9225000D02*
X12120000Y-3225000D01*
X10340000Y-9225000D02*
X9580000Y-9225000D01*
X9580000Y-9225000D02*
X9580000Y-3225000D01*
X7800000Y-9225000D02*
X7040000Y-9225000D01*
X7040000Y-9225000D02*
X7040000Y-3225000D01*
X5260000Y-9225000D02*
X4500000Y-9225000D01*
X4500000Y-9225000D02*
X4500000Y-3225000D01*
X2720000Y-9225000D02*
X1960000Y-9225000D01*
X1960000Y-9225000D02*
X1960000Y-3225000D01*
%TO.C,TP1*%
X4000000Y9800000D02*
G75*
G03*
X4000000Y9800000I-700000J0D01*
G01*
%TO.C,R2*%
X12080000Y6053641D02*
X12080000Y5746359D01*
X11320000Y6053641D02*
X11320000Y5746359D01*
D12*
%TO.C,SW1*%
X12900000Y20900000D02*
X12900000Y19500000D01*
X11500000Y20900000D02*
X11500000Y19500000D01*
X12647214Y20200000D02*
G75*
G03*
X12647214Y20200000I-447214J0D01*
G01*
D11*
%TO.C,C8*%
X5407836Y22340000D02*
X5192164Y22340000D01*
X5407836Y23060000D02*
X5192164Y23060000D01*
%TO.C,D1*%
X8115000Y22035000D02*
X8115000Y20565000D01*
X8115000Y20565000D02*
X10400000Y20565000D01*
X10400000Y22035000D02*
X8115000Y22035000D01*
%TD*%
%LPC*%
D13*
%TO.C,L3*%
X6100000Y20815000D03*
X6100000Y21785000D03*
%TD*%
D14*
%TO.C,C5*%
X5380000Y17900000D03*
X4420000Y17900000D03*
%TD*%
D15*
%TO.C,J2*%
X10000000Y24100000D03*
%TD*%
D14*
%TO.C,C7*%
X6080000Y19900000D03*
X5120000Y19900000D03*
%TD*%
D16*
%TO.C,C11*%
X10700000Y8480000D03*
X10700000Y7520000D03*
%TD*%
%TO.C,C13*%
X2900000Y6780000D03*
X2900000Y5820000D03*
%TD*%
%TO.C,C3*%
X9300000Y8480000D03*
X9300000Y7520000D03*
%TD*%
D14*
%TO.C,C12*%
X3480000Y17900000D03*
X2520000Y17900000D03*
%TD*%
D17*
%TO.C,U1*%
X12037500Y10550000D03*
X12037500Y11050000D03*
X12037500Y11550000D03*
X12037500Y12050000D03*
X12037500Y12550000D03*
X12037500Y13050000D03*
X12037500Y13550000D03*
X12037500Y14050000D03*
X12037500Y14550000D03*
X12037500Y15050000D03*
X12037500Y15550000D03*
X12037500Y16050000D03*
D18*
X11350000Y16737500D03*
X10850000Y16737500D03*
X10350000Y16737500D03*
X9850000Y16737500D03*
X9350000Y16737500D03*
X8850000Y16737500D03*
X8350000Y16737500D03*
X7850000Y16737500D03*
X7350000Y16737500D03*
X6850000Y16737500D03*
X6350000Y16737500D03*
X5850000Y16737500D03*
D17*
X5162500Y16050000D03*
X5162500Y15550000D03*
X5162500Y15050000D03*
X5162500Y14550000D03*
X5162500Y14050000D03*
X5162500Y13550000D03*
X5162500Y13050000D03*
X5162500Y12550000D03*
X5162500Y12050000D03*
X5162500Y11550000D03*
X5162500Y11050000D03*
X5162500Y10550000D03*
D18*
X5850000Y9862500D03*
X6350000Y9862500D03*
X6850000Y9862500D03*
X7350000Y9862500D03*
X7850000Y9862500D03*
X8350000Y9862500D03*
X8850000Y9862500D03*
X9350000Y9862500D03*
X9850000Y9862500D03*
X10350000Y9862500D03*
X10850000Y9862500D03*
X11350000Y9862500D03*
D19*
X8600000Y13300000D03*
%TD*%
D20*
%TO.C,R3*%
X10400000Y18900000D03*
X10400000Y19920000D03*
%TD*%
D21*
%TO.C,H2*%
X13000000Y3800000D03*
%TD*%
D22*
%TO.C,C14*%
X2900000Y3920000D03*
X2900000Y4880000D03*
%TD*%
D23*
%TO.C,U2*%
X6050000Y6500000D03*
X4150000Y6500000D03*
X5100000Y4625000D03*
%TD*%
D24*
%TO.C,TP2*%
X8600000Y6000000D03*
%TD*%
D22*
%TO.C,C6*%
X8000000Y18920000D03*
X8000000Y19880000D03*
%TD*%
D25*
%TO.C,C15*%
X5920000Y8400000D03*
X6880000Y8400000D03*
%TD*%
D26*
%TO.C,R4*%
X9300000Y19910000D03*
X9300000Y18890000D03*
%TD*%
D14*
%TO.C,C1*%
X12380000Y17900000D03*
X11420000Y17900000D03*
%TD*%
%TO.C,C10*%
X3280000Y13200000D03*
X2320000Y13200000D03*
%TD*%
%TO.C,C4*%
X4180000Y18900000D03*
X3220000Y18900000D03*
%TD*%
D16*
%TO.C,C2*%
X7850000Y8480000D03*
X7850000Y7520000D03*
%TD*%
D26*
%TO.C,R1*%
X10700000Y6410000D03*
X10700000Y5390000D03*
%TD*%
D27*
%TO.C,Y1*%
X3600000Y14600000D03*
X3600000Y16000000D03*
X2500000Y16000000D03*
X2500000Y14600000D03*
%TD*%
D14*
%TO.C,C9*%
X3280000Y11900000D03*
X2320000Y11900000D03*
%TD*%
D28*
%TO.C,J1*%
X12500000Y875000D03*
D29*
X9960000Y875000D03*
X7420000Y875000D03*
X4880000Y875000D03*
X2340000Y875000D03*
%TD*%
D24*
%TO.C,TP1*%
X3300000Y9800000D03*
%TD*%
D26*
%TO.C,R2*%
X11700000Y6410000D03*
X11700000Y5390000D03*
%TD*%
D21*
%TO.C,H1*%
X2500000Y24600000D03*
%TD*%
D30*
%TO.C,SW1*%
X12600000Y21525000D03*
X11800000Y21525000D03*
X12600000Y18875000D03*
X11800000Y18875000D03*
%TD*%
D31*
%TO.C,L1*%
X5115000Y18900000D03*
X6085000Y18900000D03*
%TD*%
D14*
%TO.C,C8*%
X5780000Y22700000D03*
X4820000Y22700000D03*
%TD*%
D31*
%TO.C,L4*%
X7030000Y18000000D03*
X8000000Y18000000D03*
%TD*%
D13*
%TO.C,L2*%
X7000000Y18915000D03*
X7000000Y19885000D03*
%TD*%
D32*
%TO.C,D1*%
X8812500Y21300000D03*
X10387500Y21300000D03*
%TD*%
D15*
%TO.C,AE1*%
X7400000Y24100000D03*
%TD*%
%LPD*%
M02*
