%TF.GenerationSoftware,KiCad,Pcbnew,7.0.6*%
%TF.CreationDate,2023-07-24T21:53:20+02:00*%
%TF.ProjectId,beacon,62656163-6f6e-42e6-9b69-6361645f7063,rev?*%
%TF.SameCoordinates,Original*%
%TF.FileFunction,Legend,Bot*%
%TF.FilePolarity,Positive*%
%FSLAX46Y46*%
G04 Gerber Fmt 4.6, Leading zero omitted, Abs format (unit mm)*
G04 Created by KiCad (PCBNEW 7.0.6) date 2023-07-24 21:53:20*
%MOMM*%
%LPD*%
G01*
G04 APERTURE LIST*
G04 Aperture macros list*
%AMRoundRect*
0 Rectangle with rounded corners*
0 $1 Rounding radius*
0 $2 $3 $4 $5 $6 $7 $8 $9 X,Y pos of 4 corners*
0 Add a 4 corners polygon primitive as box body*
4,1,4,$2,$3,$4,$5,$6,$7,$8,$9,$2,$3,0*
0 Add four circle primitives for the rounded corners*
1,1,$1+$1,$2,$3*
1,1,$1+$1,$4,$5*
1,1,$1+$1,$6,$7*
1,1,$1+$1,$8,$9*
0 Add four rect primitives between the rounded corners*
20,1,$1+$1,$2,$3,$4,$5,0*
20,1,$1+$1,$4,$5,$6,$7,0*
20,1,$1+$1,$6,$7,$8,$9,0*
20,1,$1+$1,$8,$9,$2,$3,0*%
G04 Aperture macros list end*
%ADD10C,0.150000*%
%ADD11C,0.300000*%
%ADD12C,1.300000*%
%ADD13C,1.700000*%
%ADD14O,1.700000X1.700000*%
%ADD15RoundRect,0.600000X-2.450000X0.600000X-2.450000X-0.600000X2.450000X-0.600000X2.450000X0.600000X0*%
%ADD16RoundRect,1.500000X-1.500000X1.500000X-1.500000X-1.500000X1.500000X-1.500000X1.500000X1.500000X0*%
G04 APERTURE END LIST*
D10*
X3100000Y23600000D02*
X12000000Y23600000D01*
X12000000Y18100000D01*
X3100000Y18100000D01*
X3100000Y23600000D01*
G36*
X3100000Y23600000D02*
G01*
X12000000Y23600000D01*
X12000000Y18100000D01*
X3100000Y18100000D01*
X3100000Y23600000D01*
G37*
X10187030Y6505705D02*
X10187030Y5934277D01*
X10187030Y5934277D02*
X10215601Y5819991D01*
X10215601Y5819991D02*
X10272744Y5743800D01*
X10272744Y5743800D02*
X10358458Y5705705D01*
X10358458Y5705705D02*
X10415601Y5705705D01*
X9615601Y5705705D02*
X9901315Y5705705D01*
X9901315Y5705705D02*
X9901315Y6505705D01*
X9072744Y5781896D02*
X9101316Y5743800D01*
X9101316Y5743800D02*
X9187030Y5705705D01*
X9187030Y5705705D02*
X9244173Y5705705D01*
X9244173Y5705705D02*
X9329887Y5743800D01*
X9329887Y5743800D02*
X9387030Y5819991D01*
X9387030Y5819991D02*
X9415601Y5896181D01*
X9415601Y5896181D02*
X9444173Y6048562D01*
X9444173Y6048562D02*
X9444173Y6162848D01*
X9444173Y6162848D02*
X9415601Y6315229D01*
X9415601Y6315229D02*
X9387030Y6391420D01*
X9387030Y6391420D02*
X9329887Y6467610D01*
X9329887Y6467610D02*
X9244173Y6505705D01*
X9244173Y6505705D02*
X9187030Y6505705D01*
X9187030Y6505705D02*
X9101316Y6467610D01*
X9101316Y6467610D02*
X9072744Y6429515D01*
X8644173Y6505705D02*
X8644173Y5934277D01*
X8644173Y5934277D02*
X8672744Y5819991D01*
X8672744Y5819991D02*
X8729887Y5743800D01*
X8729887Y5743800D02*
X8815601Y5705705D01*
X8815601Y5705705D02*
X8872744Y5705705D01*
X8072744Y5705705D02*
X8358458Y5705705D01*
X8358458Y5705705D02*
X8358458Y6505705D01*
X7529887Y5781896D02*
X7558459Y5743800D01*
X7558459Y5743800D02*
X7644173Y5705705D01*
X7644173Y5705705D02*
X7701316Y5705705D01*
X7701316Y5705705D02*
X7787030Y5743800D01*
X7787030Y5743800D02*
X7844173Y5819991D01*
X7844173Y5819991D02*
X7872744Y5896181D01*
X7872744Y5896181D02*
X7901316Y6048562D01*
X7901316Y6048562D02*
X7901316Y6162848D01*
X7901316Y6162848D02*
X7872744Y6315229D01*
X7872744Y6315229D02*
X7844173Y6391420D01*
X7844173Y6391420D02*
X7787030Y6467610D01*
X7787030Y6467610D02*
X7701316Y6505705D01*
X7701316Y6505705D02*
X7644173Y6505705D01*
X7644173Y6505705D02*
X7558459Y6467610D01*
X7558459Y6467610D02*
X7529887Y6429515D01*
X7101316Y6505705D02*
X7101316Y5934277D01*
X7101316Y5934277D02*
X7129887Y5819991D01*
X7129887Y5819991D02*
X7187030Y5743800D01*
X7187030Y5743800D02*
X7272744Y5705705D01*
X7272744Y5705705D02*
X7329887Y5705705D01*
X6529887Y5705705D02*
X6815601Y5705705D01*
X6815601Y5705705D02*
X6815601Y6505705D01*
X5987030Y5781896D02*
X6015602Y5743800D01*
X6015602Y5743800D02*
X6101316Y5705705D01*
X6101316Y5705705D02*
X6158459Y5705705D01*
X6158459Y5705705D02*
X6244173Y5743800D01*
X6244173Y5743800D02*
X6301316Y5819991D01*
X6301316Y5819991D02*
X6329887Y5896181D01*
X6329887Y5896181D02*
X6358459Y6048562D01*
X6358459Y6048562D02*
X6358459Y6162848D01*
X6358459Y6162848D02*
X6329887Y6315229D01*
X6329887Y6315229D02*
X6301316Y6391420D01*
X6301316Y6391420D02*
X6244173Y6467610D01*
X6244173Y6467610D02*
X6158459Y6505705D01*
X6158459Y6505705D02*
X6101316Y6505705D01*
X6101316Y6505705D02*
X6015602Y6467610D01*
X6015602Y6467610D02*
X5987030Y6429515D01*
X5558459Y6505705D02*
X5558459Y5934277D01*
X5558459Y5934277D02*
X5587030Y5819991D01*
X5587030Y5819991D02*
X5644173Y5743800D01*
X5644173Y5743800D02*
X5729887Y5705705D01*
X5729887Y5705705D02*
X5787030Y5705705D01*
X4987030Y5705705D02*
X5272744Y5705705D01*
X5272744Y5705705D02*
X5272744Y6505705D01*
X4444173Y5781896D02*
X4472745Y5743800D01*
X4472745Y5743800D02*
X4558459Y5705705D01*
X4558459Y5705705D02*
X4615602Y5705705D01*
X4615602Y5705705D02*
X4701316Y5743800D01*
X4701316Y5743800D02*
X4758459Y5819991D01*
X4758459Y5819991D02*
X4787030Y5896181D01*
X4787030Y5896181D02*
X4815602Y6048562D01*
X4815602Y6048562D02*
X4815602Y6162848D01*
X4815602Y6162848D02*
X4787030Y6315229D01*
X4787030Y6315229D02*
X4758459Y6391420D01*
X4758459Y6391420D02*
X4701316Y6467610D01*
X4701316Y6467610D02*
X4615602Y6505705D01*
X4615602Y6505705D02*
X4558459Y6505705D01*
X4558459Y6505705D02*
X4472745Y6467610D01*
X4472745Y6467610D02*
X4444173Y6429515D01*
D11*
%TO.C,BT1*%
X12100000Y26300000D02*
X12100000Y24300000D01*
X11100000Y25300000D02*
X13100000Y25300000D01*
X11500000Y15500000D02*
X11500000Y13500000D01*
X2500000Y4500000D02*
X2500000Y2500000D01*
X3500000Y3500000D02*
X1500000Y3500000D01*
%TD*%
%LPC*%
D12*
%TO.C,H2*%
X13000000Y3800000D03*
%TD*%
D13*
%TO.C,J1*%
X12500000Y875000D03*
D14*
X9960000Y875000D03*
X7420000Y875000D03*
X4880000Y875000D03*
X2340000Y875000D03*
%TD*%
D12*
%TO.C,H1*%
X2500000Y24600000D03*
%TD*%
D15*
%TO.C,BT1*%
X7500000Y25850000D03*
X7500000Y3150000D03*
D16*
X7500000Y14500000D03*
%TD*%
%LPD*%
M02*
